<svg xmlns="http://www.w3.org/2000/svg" xml:space="preserve" id="svg1" width="1080" height="1080" viewBox="0 0 285.75 285.75"><g id="layer1" style="display:inline;opacity:1;mix-blend-mode:multiply"><g id="g6" transform="translate(-203.176 -206.575)scale(2.09713)"><g id="g7" transform="translate(2.115 .705)"><g id="g5"><path id="path1" d="m185.598 138.254-65.007 25.5a4.4 4.4 0 0 0-2.741 3.436l-1.705 11.298a4.4 4.4 0 0 0 1.605 4.092l5.474 4.367v-3.354l-2.656-2.119a4.4 4.4 0 0 1-1.605-4.091l.8-5.314a1.465 1.465 0 0 1 2.363-.928l25.045 19.98 66.4-25.869a1.74 1.74 0 0 0 1.09-1.364l.18-1.186a1.75 1.75 0 0 0-.64-1.629zm26.655 37.293a.6.6 0 0 0-.239.039l-66.403 25.867-9.383-7.485v3.353l8.932 7.125 66.433-26.059a1.74 1.74 0 0 0 1.086-1.361l.122-.81a.58.58 0 0 0-.548-.67" style="stroke-width:9.24609;stroke-linecap:round;stroke-linejoin:round;stroke-miterlimit:4.7;paint-order:stroke markers fill"/></g><path id="rect5" d="m125.1 179.754 8.86 7.49v13.066l-4.43-9.563-4.43 2.073z" style="fill:#000;stroke-width:4.20648;stroke-linecap:round;stroke-linejoin:round;stroke-miterlimit:4.7;paint-order:stroke markers fill"/></g></g></g></svg>