<svg xmlns="http://www.w3.org/2000/svg" xml:space="preserve" id="svg1" width="1080" height="1080" viewBox="0 0 285.75 285.75"><g id="layer1" style="display:inline;opacity:1;mix-blend-mode:multiply"><path id="circle10" d="M174.067 116.556c0 29.282-12.133 116.197-41.415 116.197S9.364 145.838 9.364 116.556 103.37.359 132.652.359s41.415 86.915 41.415 116.197m5.37 0c0 27.474-19.312 111.985-46.785 111.985-27.474 0-119.428-84.511-119.428-111.985S105.178 4.688 132.652 4.688c27.473 0 46.786 84.394 46.786 111.868m5.371 0c0 25.666-26.49 107.774-52.156 107.774s-115.57-82.108-115.57-107.774S106.986 9.016 132.652 9.016s52.156 81.874 52.156 107.54m5.37 0c0 23.858-33.669 103.562-57.526 103.562S20.943 140.414 20.943 116.556s87.851-103.21 111.709-103.21c23.857 0 57.527 79.352 57.527 103.21m5.371 0c0 22.05-40.848 99.35-62.897 99.35-22.05 0-107.849-77.3-107.849-99.35s85.8-98.882 107.849-98.882 62.897 76.832 62.897 98.882m5.371 0c0 20.241-48.027 95.14-68.268 95.14-20.242 0-103.989-74.899-103.989-95.14 0-20.242 83.747-94.553 103.989-94.553 20.241 0 68.268 74.311 68.268 94.553m5.37 0c0 18.433-55.205 90.928-73.638 90.928s-100.13-72.495-100.13-90.928 81.696-90.224 100.13-90.224 73.639 71.79 73.639 90.224m5.371 0c0 16.625-62.384 86.716-79.01 86.716-16.625 0-96.268-70.09-96.268-86.716s79.643-85.896 96.269-85.896c16.625 0 79.01 69.27 79.01 85.896m5.37 0c0 14.817-69.562 82.505-84.38 82.505s-92.408-67.688-92.408-82.505 77.591-81.567 92.409-81.567c14.817 0 84.38 66.75 84.38 81.567m5.371 0c0 13.01-76.741 78.293-89.75 78.293s-88.55-65.284-88.55-78.293 75.54-77.238 88.55-77.238 89.75 64.229 89.75 77.238m5.37 0c0 11.201-83.92 74.082-95.12 74.082s-84.69-62.881-84.69-74.082 73.489-72.91 84.69-72.91 95.12 61.709 95.12 72.91m5.371 0c0 9.393-91.098 69.87-100.491 69.87s-80.83-60.477-80.83-69.87 71.437-68.58 80.83-68.58 100.491 59.187 100.491 68.58" style="fill:none;fill-opacity:.973118;stroke:#000;stroke-width:1.32292;stroke-linecap:round;stroke-linejoin:round;stroke-miterlimit:4.7;paint-order:markers fill stroke" transform="translate(21.621 26.32)"/></g></svg>