<svg xmlns="http://www.w3.org/2000/svg" xml:space="preserve" id="svg1" width="1080" height="1080" viewBox="0 0 285.75 285.75"><g id="layer1" style="display:inline;opacity:1;mix-blend-mode:multiply"><path id="path5" d="M75.565 209.899c2.726-8.515 5.042-16.969 10.388-20.145 5.345-3.177 13.952-1.221 18.947-4.944s6.07-12.912 10.82-17.392c4.748-4.48 13.459-4.496 17.908-8.482s4.424-11.698 9.088-16.36 14.208-6.581 18.267-11.281 2.478-11.873 6.251-16.492 13.035-6.997 16.712-11.697 1.654-11.412 4.773-16.506c3.087-5.043 11.458-8.785 19.754-12.904m4.48 22.083 6.786 4.624c13.094 8.922 15.277 28.588 3.742 43.195a482.8 482.8 0 0 1-79.925 79.87c-14.615 11.525-34.28 9.33-43.193-3.771l-4.619-6.789m-23.45-34.466-4.62-6.789c-8.912-13.1-6.621-29.969 4.487-38.728a368 368 0 0 0 60.826-60.784c8.767-11.103 25.637-13.382 38.731-4.46l6.786 4.624M64.317 183.729c47.627-30.74 88.705-71.792 119.479-119.397 5.93-9.175 18.04-12.338 27.673-6.771l1.326.766c9.634 5.567 12.567 18.504 6.008 28.643-34.03 52.608-79.24 97.788-131.872 131.782-10.143 6.551-23.079 3.61-28.639-6.028l-.765-1.327c-5.56-9.638-2.388-21.744 6.79-27.668" style="fill:none;fill-opacity:.973118;stroke:#000;stroke-width:2.64583;stroke-linecap:round;stroke-linejoin:round;stroke-miterlimit:4.7;stroke-dasharray:none;paint-order:markers fill stroke"/></g></svg>