<svg xmlns="http://www.w3.org/2000/svg" xml:space="preserve" id="svg1" width="1080" height="1080" viewBox="0 0 285.75 285.75"><g id="layer1" style="display:inline;opacity:1;mix-blend-mode:multiply"><path id="rect6" d="M151.115 43.733c8.734-1.07 15.766 8.63 15.766 17.363 0 8.734-7.032 16.627-15.766 17.697m-10.583 1.296-11.636 1.425c-5.555.68-10.027-3.189-10.027-8.675s4.472-10.45 10.027-11.131l11.636-1.425c6.991-1.54 10.583-9.744 10.583-16.55m-34.559 39.292 52.638-6.447c8.734-1.07 15.765 5.1 15.765 13.835 0 8.734-7.031 16.626-15.765 17.696l-52.638 6.447c-8.734 1.07-15.765-5.1-15.765-13.834s7.031-16.627 15.765-17.697m-9.41 32.684 71.458-8.753c8.734-1.07 15.765 5.1 15.765 13.835 0 8.733-7.031 16.626-15.765 17.696l-71.458 8.752c-8.734 1.07-15.765-5.1-15.765-13.834s7.031-16.627 15.765-17.696m9.019 57.519 46.927-32.841m-34.316 58.734 38.384-26.863m-63.448-24.598 78.326-9.594-39.163 90.003z" style="fill:none;fill-opacity:.973118;stroke:#000;stroke-width:2.64583;stroke-linecap:round;stroke-linejoin:round;stroke-miterlimit:4.7;paint-order:markers fill stroke"/></g></svg>