<svg xmlns="http://www.w3.org/2000/svg" xml:space="preserve" id="svg1" width="1080" height="1080" viewBox="0 0 285.75 285.75"><g id="layer1" style="display:inline;opacity:1;mix-blend-mode:multiply"><path id="circle2" d="M211.262 155.204a8.418 8.428 0 0 1-8.417 8.428 8.418 8.428 0 0 1-8.418-8.428 8.418 8.428 0 0 1 8.418-8.428 8.418 8.428 0 0 1 8.417 8.428m-56.198 11.38a13.458 13.475 0 0 1-13.458 13.475 13.458 13.475 0 0 1-13.458-13.475 13.458 13.475 0 0 1 13.458-13.475 13.458 13.475 0 0 1 13.458 13.475m-44.86 15.588a10.291 10.304 0 0 1-10.291 10.304 10.291 10.304 0 0 1-10.292-10.304 10.291 10.304 0 0 1 10.292-10.304 10.291 10.304 0 0 1 10.291 10.304m58.522-69.245a13.63 8.123 0 0 1-13.63 8.123 13.63 8.123 0 0 1-13.63-8.123 13.63 8.123 0 0 1 13.63-8.123 13.63 8.123 0 0 1 13.63 8.123m57.07 16.47L59.954 153.704v19.668a10.076 10.089 0 0 1 .078 0 10.076 10.089 0 0 1 10.076 10.088 10.076 10.089 0 0 1-10.076 10.09 10.076 10.089 0 0 1-.078 0v15.906l104.25-15.28a18.045 13.638 0 0 1 0-.065 18.045 13.638 0 0 1 18.046-13.64 18.045 13.638 0 0 1 16.77 8.602l26.778-3.924zm-88.16-53.103-22.591 22.512a14.657 14.704 0 0 1 3.301 9.296 14.657 14.704 0 0 1-14.657 14.703 14.657 14.704 0 0 1-9.342-3.373l-34.394 34.274 165.843-24.308a172.778 86.665 0 0 0-88.16-53.104" style="fill:none;fill-opacity:.973118;stroke:#000;stroke-width:7.7774;stroke-linecap:round;stroke-linejoin:round;stroke-miterlimit:4.7;paint-order:markers fill stroke"/></g></svg>