<svg xmlns="http://www.w3.org/2000/svg" xml:space="preserve" id="svg1" width="1080" height="1080" viewBox="0 0 285.75 285.75"><g id="layer1" style="display:inline;opacity:1;mix-blend-mode:multiply"><g id="g5" transform="translate(-25.403 -20.911)scale(1.12092)"><path id="path3" d="m118.004 192.458 89.867-32.847c6.684-2.57 12.292-10.55 10.691-17.513-6.068-26.39-31-40.7-60.834-32.706-34.377 9.212-51.773 37.217-51.773 71.593l-.093.782s-.008 14.104-13.37 14.506c-13.36.402-10.893-15.288-10.893-15.288 0-34.376 21.231-75.817 55.608-85.028" style="fill:none;fill-opacity:.973118;stroke:#000;stroke-width:5.23596;stroke-linecap:round;stroke-linejoin:round;stroke-miterlimit:4.7"/><path id="path4" d="M98.35 157.04c-.723-1.52-1.444-3.04-1.007-4.597.436-1.557 2.032-3.153 2.43-5.11.4-1.956-.398-4.273.096-5.887.494-1.615 2.279-2.526 3.02-3.875.74-1.349.437-3.134 1.272-4.54.836-1.405 2.811-2.43 4.046-3.893 1.234-1.463 1.728-3.362 2.984-4.905 1.255-1.543 3.272-2.73 5.289-3.649 2.017-.918 4.034-1.568 6.05-2.218" style="fill:none;fill-opacity:.973118;stroke:#000;stroke-width:2.64583;stroke-linecap:round;stroke-linejoin:round;stroke-miterlimit:4.7" transform="rotate(-3.037 -2193.905 2141.863)scale(1.97895)"/></g></g></svg>