<svg xmlns="http://www.w3.org/2000/svg" xmlns:xlink="http://www.w3.org/1999/xlink" xml:space="preserve" id="svg1" width="1080" height="1080" viewBox="0 0 285.75 285.75"><defs id="defs1"><linearGradient id="linearGradient19"><stop id="stop21" offset="0" style="stop-color:#3ed298;stop-opacity:0"/><stop id="stop20" offset="1" style="stop-color:#3ed28e;stop-opacity:.54146343"/></linearGradient><linearGradient id="linearGradient18"><stop id="stop18" offset="0" style="stop-color:#000;stop-opacity:1"/><stop id="stop19" offset="1" style="stop-color:#000;stop-opacity:0"/></linearGradient><linearGradient id="supabase__paint0_linear" x1="53.974" x2="94.163" y1="54.974" y2="71.829" gradientUnits="userSpaceOnUse"><stop id="stop3" stop-color="#249361"/><stop id="stop4" offset="1" stop-color="#3ecf8e"/></linearGradient><linearGradient id="supabase__paint1_linear" x1="36.156" x2="54.484" y1="30.578" y2="65.081" gradientUnits="userSpaceOnUse"><stop id="stop5"/><stop id="stop6" offset="1" stop-opacity="0"/></linearGradient><radialGradient xlink:href="#linearGradient18" id="radialGradient19" cx="142.875" cy="142.875" r="53.302" fx="142.875" fy="142.875" gradientTransform="translate(-38.12 -38.12)scale(1.2668)" gradientUnits="userSpaceOnUse"/><radialGradient xlink:href="#linearGradient19" id="radialGradient21" cx="142.875" cy="142.875" r="54.493" fx="142.875" fy="142.875" gradientTransform="translate(-38.12 -38.12)scale(1.2668)" gradientUnits="userSpaceOnUse"/></defs><g id="layer1" style="display:inline;opacity:1;mix-blend-mode:multiply"><g id="g22"><circle id="path18" cx="142.875" cy="142.875" r="67.523" style="font-variation-settings:&quot;wght&quot;900;fill:url(#radialGradient21);fill-opacity:.972549;stroke:url(#radialGradient19);stroke-width:3.01657;stroke-linecap:round;stroke-linejoin:round;stroke-miterlimit:4.7;stroke-dasharray:none;stroke-opacity:.972549"/><path id="path1" d="M143.283 215.17a72.7 72.7 0 0 1-72.702-72.703 72.7 72.7 0 0 1 72.702-72.703 72.7 72.7 0 0 1 72.703 72.703 72.7 72.7 0 0 1-72.703 72.702" style="fill:none;fill-opacity:.973118;stroke:none;stroke-width:3.01657;stroke-linecap:round;stroke-linejoin:round;stroke-miterlimit:4.7;stroke-dasharray:none"/><text xml:space="preserve" id="text1" style="font-style:normal;font-variant:normal;font-weight:400;font-stretch:normal;font-size:19.4054px;font-family:Montserrat;-gravit-designer-font-specification:&quot;Montserrat, @wght=800&quot;;font-variant-ligatures:normal;font-variant-caps:normal;font-variant-numeric:normal;font-variant-east-asian:normal;font-variation-settings:&quot;wght&quot;800;text-align:center;letter-spacing:3.88109px;word-spacing:.0242568px;writing-mode:lr-tb;direction:ltr;text-anchor:middle;fill:none;fill-opacity:.973118;stroke:#000;stroke-width:4.36622;stroke-linecap:round;stroke-linejoin:round;stroke-miterlimit:4.7;stroke-dasharray:none"><textPath xlink:href="#path1" id="textPath3" startOffset="50%" style="font-style:normal;font-variant:normal;font-weight:400;font-stretch:normal;font-size:19.4054px;font-family:Montserrat;-gravit-designer-font-specification:&quot;Montserrat, @wght=900&quot;;font-variant-ligatures:normal;font-variant-caps:normal;font-variant-numeric:normal;font-variant-east-asian:normal;font-variation-settings:&quot;wght&quot;900;text-align:center;text-anchor:middle;fill:#3ecf8e;fill-opacity:.972549;stroke:none;stroke-width:4.36622">SUPABASE</textPath></text><text xml:space="preserve" id="text2" style="font-style:normal;font-variant:normal;font-weight:400;font-stretch:normal;font-size:19.4054px;font-family:Montserrat;-gravit-designer-font-specification:&quot;Montserrat, @wght=800&quot;;font-variant-ligatures:normal;font-variant-caps:normal;font-variant-numeric:normal;font-variant-east-asian:normal;font-variation-settings:&quot;wght&quot;800;text-align:center;letter-spacing:3.88109px;word-spacing:.0242568px;writing-mode:lr-tb;direction:ltr;text-anchor:middle;fill:#3ed08e;fill-opacity:.972549;stroke:#000;stroke-width:4.36622;stroke-linecap:round;stroke-linejoin:round;stroke-miterlimit:4.7;stroke-dasharray:none"><textPath xlink:href="#path3" id="textPath4" startOffset="50%" style="font-style:normal;font-variant:normal;font-weight:400;font-stretch:normal;font-size:19.4054px;font-family:Montserrat;-gravit-designer-font-specification:&quot;Montserrat, @wght=900&quot;;font-variant-ligatures:normal;font-variant-caps:normal;font-variant-numeric:normal;font-variant-east-asian:normal;font-variation-settings:&quot;wght&quot;900;text-align:center;text-anchor:middle;fill:#3ed08e;fill-opacity:.972549;stroke:none;stroke-width:4.36622">LOGO DESIGN</textPath></text><path id="path3" d="M140.314 54.79a88.12 88.12 0 0 0-85.524 90.645 88.12 88.12 0 0 0 90.646 85.525 88.12 88.12 0 0 0 85.524-90.645 88.12 88.12 0 0 0-90.646-85.525" style="font-variation-settings:&quot;wght&quot;800;fill:none;fill-opacity:.973118;stroke:none;stroke-width:3.01657;stroke-linecap:round;stroke-linejoin:round;stroke-miterlimit:4.7"/><path id="path8" d="M69.347 177.165a81 81 0 0 1-5.2-14.69m0-39.2a81 81 0 0 1 5.2-14.69m139.694 14.69h36.5l-5.29 19.6 5.29 19.6h-36.5m-132.332 0h-36.5l5.29-19.6-5.29-19.6v0h36.5m139.694-14.69a81 81 0 0 1 5.2 14.69m0 39.2a81 81 0 0 1-5.2 14.69m-4.52-34.29a69.01 69.01 0 0 1-69.008 69.008 69.01 69.01 0 0 1-69.008-69.008 69.01 69.01 0 0 1 69.008-69.008 69.01 69.01 0 0 1 69.008 69.008m22.293 19.6a93.38 93.38 0 0 1-91.301 73.78 93.38 93.38 0 0 1-91.3-73.78m0-39.2a93.38 93.38 0 0 1 91.3-73.78 93.38 93.38 0 0 1 91.3 73.78" style="font-variation-settings:&quot;wght&quot;800;fill:none;fill-opacity:.973118;stroke:#3ed18e;stroke-width:3.01657;stroke-linecap:round;stroke-linejoin:round;stroke-miterlimit:4.7;stroke-dasharray:none;stroke-opacity:.972549"/><text xml:space="preserve" id="text17" x="59.592" y="147.324" style="font-style:normal;font-variant:normal;font-weight:400;font-stretch:normal;font-size:12.7113px;font-family:Montserrat;-gravit-designer-font-specification:&quot;Montserrat, @wght=900&quot;;font-variant-ligatures:normal;font-variant-caps:normal;font-variant-numeric:normal;font-variant-east-asian:normal;font-variation-settings:&quot;wght&quot;900;text-align:center;letter-spacing:1.00552px;word-spacing:.0109778px;writing-mode:lr-tb;direction:ltr;text-anchor:middle;fill:#3ed08e;fill-opacity:.972549;stroke:#000;stroke-width:3.01657;stroke-linecap:round;stroke-linejoin:round;stroke-miterlimit:4.7;stroke-dasharray:none"><tspan id="tspan17" x="60.095" y="147.324" style="letter-spacing:1.00552px;fill:#3ed08e;fill-opacity:.972549;stroke:none;stroke-width:3.01657">20</tspan></text><text xml:space="preserve" id="text18" x="226.769" y="147.324" style="font-style:normal;font-variant:normal;font-weight:400;font-stretch:normal;font-size:12.7113px;font-family:Montserrat;-gravit-designer-font-specification:&quot;Montserrat, @wght=900&quot;;font-variant-ligatures:normal;font-variant-caps:normal;font-variant-numeric:normal;font-variant-east-asian:normal;font-variation-settings:&quot;wght&quot;900;text-align:center;letter-spacing:1.00552px;word-spacing:.0109778px;writing-mode:lr-tb;direction:ltr;text-anchor:middle;fill:#3ed08e;fill-opacity:.972549;stroke:#000;stroke-width:3.01657;stroke-linecap:round;stroke-linejoin:round;stroke-miterlimit:4.7;stroke-dasharray:none"><tspan id="tspan18" x="227.272" y="147.324" style="letter-spacing:1.00552px;fill:#3ed08e;fill-opacity:.972549;stroke:none;stroke-width:3.01657">50</tspan></text><g id="g21" style="fill:none;stroke-width:.484286" transform="rotate(10.059 -523.641 708.473)scale(.59815)"><path id="path1-0" fill="url(#supabase__paint0_linear)" d="M63.708 110.284c-2.86 3.601-8.658 1.628-8.727-2.97l-1.007-67.251h45.22c8.19 0 12.758 9.46 7.665 15.874z" style="fill:url(#supabase__paint0_linear);stroke-width:.484286"/><path id="path2" fill="url(#supabase__paint1_linear)" fill-opacity=".2" d="M63.708 110.284c-2.86 3.601-8.658 1.628-8.727-2.97l-1.007-67.251h45.22c8.19 0 12.758 9.46 7.665 15.874z" style="fill:url(#supabase__paint1_linear);stroke-width:.484286"/><path id="path3-9" fill="#3ecf8e" d="M45.317 2.071c2.86-3.601 8.658-1.628 8.726 2.97l.442 67.251H9.83c-8.19 0-12.759-9.46-7.665-15.875z" style="stroke-width:.484286"/></g></g></g></svg>