<svg xmlns="http://www.w3.org/2000/svg" xml:space="preserve" id="svg1" width="1080" height="1080" viewBox="0 0 285.75 285.75"><g id="layer1" style="display:inline;opacity:1;mix-blend-mode:multiply"><g id="g34"><path id="path23" d="M104.016 220.386c6.094 4.352 13.988 7.743 22.944 9.59 23.23 4.788 48.848-4.585 64.72-17.753m-87.664-10.425c6.094 4.352 13.988 7.743 22.944 9.589 23.23 4.788 48.848-4.585 64.72-17.752m-87.664-10.426c6.094 4.352 13.988 7.743 22.944 9.589 23.23 4.788 48.848-4.584 64.72-17.752m-87.664-10.426c6.094 4.352 13.988 7.743 22.944 9.59 23.23 4.788 48.848-4.585 64.72-17.753m-87.664-10.425c6.094 4.352 13.988 7.743 22.944 9.589 23.23 4.788 48.848-4.585 64.72-17.752m-87.664-10.426c6.094 4.352 13.988 7.743 22.944 9.589 23.23 4.788 48.848-4.584 64.72-17.752m-87.664-10.426c6.094 4.352 13.988 7.743 22.944 9.59 23.23 4.788 48.848-4.585 64.72-17.753m-87.664-10.425c6.094 4.352 13.988 7.743 22.944 9.589 23.23 4.788 48.848-4.585 64.72-17.752m-25.663-43.969v36.043m-32.68-18.043v22.522m71.337-34.438.08 164.866M91 46.327v173.144m-.026-1.72c.254 17.748 13.433 29.265 35.987 33.914 31.818 6.559 63.823-7.408 74.824-26.595 2.663-4.645 3.014-10.875 2.96-15.732M133.34 56.134c12.612 3.287 26.456-1.889 31.03-9.709 6.235-10.662-4.402-22.173-20.479-25.818-21.13-4.79-43.673 3.935-50.551 17.115-8.783 16.83 8.113 34.624 33.623 39.883 31.818 6.558 68.115-13.45 77.714-33.387" style="fill:none;fill-rule:evenodd;stroke:#213271;stroke-width:4.8375;stroke-linecap:round;stroke-linejoin:round;stroke-dasharray:none;stroke-opacity:1"/><path id="path29" d="M490.017 285.77c-35.788-6.062-69.956-20.01-94.719-38.667-11.349-8.55-21.39-18.746-28.09-28.523-7.333-10.7-11.686-21.253-13.398-32.477-.56-3.676-.748-10.36-.396-14.078.627-6.605 2.526-13.858 5.336-20.38 8.216-19.071 26.35-36.379 51.463-49.12 35.489-18.003 79.453-24.502 120.31-17.785 22.563 3.71 42.005 10.985 58.04 21.719 15.449 10.341 25.681 22.973 29.02 35.826.586 2.252.619 2.731.619 9.04 0 5.876-.06 6.893-.5 8.617-3.308 12.957-13.192 24.199-29.175 33.183-11.04 6.205-25.638 10.86-39.481 12.59-6.227.777-9.913.95-17.289.81-9.195-.176-15.515-.948-23.635-2.888-3.59-.858-4.91-.912-6.932-.283-2.66.828-4.542 2.515-5.829 5.224l-.528 1.112-.066 38.344-.065 38.344-.676-.021c-.371-.012-2.175-.276-4.01-.587" style="font-variation-settings:&quot;wght&quot;900;opacity:1;fill:#2a7fff;fill-opacity:.972549;stroke:none;stroke-width:1.23492;stroke-linecap:round;stroke-linejoin:round;stroke-miterlimit:4.7;stroke-dasharray:none;stroke-opacity:1" transform="scale(.26458)"/><path id="path30" d="M517.309 288.607a321 321 0 0 1-3.767-.223c-.245-.024-.309-6.682-.309-32.385 0-17.795.052-32.355.114-32.355s1.814.216 3.89.48c6.726.853 11.402 1.076 19.55.93 11.816-.211 20.77-1.414 31.77-4.268 18.903-4.904 36.569-14.137 48.101-25.139l1.544-1.472v39.803c0 21.892-.054 39.804-.119 39.804s-1.704.51-3.643 1.131c-19.323 6.201-41.045 10.707-61.195 12.695-9.728.96-27.678 1.459-35.936.999" style="font-variation-settings:&quot;wght&quot;900;opacity:1;fill:#80b3ff;fill-opacity:.972549;stroke:none;stroke-width:1.23492;stroke-linecap:round;stroke-linejoin:round;stroke-miterlimit:4.7;stroke-dasharray:none;stroke-opacity:1" transform="scale(.26458)"/><path id="path31" d="M501.052 944.357c-35.326-4.81-73.4-17.91-96.382-33.165-21.401-14.205-37.012-33.296-45.498-55.639l-4.503-11.855-.53-304.733-.53-304.733 9.31 9.955c26.527 28.359 69.324 49.92 117.705 59.298 23.615 4.578 67.557 5.052 92.532.997 64.909-10.537 126.598-40.365 170.85-82.611l18.028-17.21 1.244 291.856c.745 174.9.508 300.04-.593 312.276-2.166 24.08-6.907 36.033-21.64 54.548-47.477 59.665-147.875 93.557-239.993 81.016m64.44-63.103c26.45-3.495 53.095-10.38 77.625-20.057 40.796-16.095 91.908-48.794 91.908-58.797 0-3.757-6.868-11.07-10.373-11.044-1.359.01-10.472 5.792-20.253 12.85-57.98 41.835-137.615 65.287-198.575 58.476-34.517-3.856-68.388-14.842-94.875-30.772-19.756-11.881-27.63-11.533-27.63 1.221 0 6.2 8.009 12.532 29.613 23.412 47.178 23.76 97.751 31.952 152.56 24.71m12.612-72.161c42.512-7.268 88.723-25.418 124.376-48.852 30.926-20.327 36.934-27.46 29.44-34.954-5.338-5.338-11.201-3.482-27.449 8.69-18.813 14.096-54.558 32.864-79.107 41.536-78.143 27.606-151.015 22.847-214.948-14.037-16.767-9.673-17.528-9.906-22.23-6.826-7.653 5.015-6.39 11.84 3.531 19.081 20.317 14.828 59.965 30.441 92.045 36.246 23.388 4.232 66.796 3.825 94.342-.884m5.37-71.101c11.737-2.274 29.52-6.795 39.518-10.047 44.82-14.576 112.033-54.071 112.033-65.832 0-3.757-6.868-11.07-10.373-11.044-1.359.01-10.472 5.797-20.253 12.86-32.634 23.567-82.134 45.455-120.528 53.295-62.176 12.696-125.767 3.251-172.622-25.636-7.96-4.908-16.503-8.924-18.983-8.924-5.993 0-9.377 4.426-8.595 11.242.524 4.574 3.356 7.184 16.056 14.799 27.832 16.688 61.915 28.34 96.62 33.035 20.965 2.836 62.335 1.056 87.128-3.748m4.349-71.1c41.729-8.848 84.915-27.12 120.603-51.028 23.55-15.776 27.922-20.512 25.453-27.576-3.213-9.194-11.38-8.254-26.516 3.055-36.475 27.25-83.018 47.75-129.492 57.032-13.053 2.607-26.544 3.507-51.3 3.421-29.563-.102-35.861-.722-52.53-5.174-25.467-6.802-47.296-15.735-64.316-26.32-7.755-4.823-15.471-8.769-17.148-8.769-4.56 0-9.257 5.58-9.257 10.996 0 12.92 55.632 38.752 101.757 47.249 22.802 4.2 76.421 2.694 102.746-2.887m-35.566-65.182c59.426-5.374 118.967-28.142 167.519-64.06 14.685-10.863 17.836-16.801 12.213-23.014-5.228-5.778-9.913-4.781-22.306 4.745-37.582 28.89-90.263 51.554-138.624 59.64-29.365 4.911-75.24 3.247-100.801-3.655-22.636-6.113-43.707-14.882-60.997-25.386-13.374-8.125-20.964-9.196-24.551-3.463-6.629 10.594 15.388 26.572 56.658 41.118 38.79 13.672 70.638 17.714 110.889 14.075m34.314-74.938c48.542-10.332 98.844-32.972 134.99-60.756 12.175-9.36 14.874-14.13 11.528-20.382-3.829-7.154-11.576-4.93-30.666 8.804-33.554 24.14-77.858 43.316-121.516 52.594-26.83 5.701-76.06 6.258-98.473 1.113-29.204-6.703-59.373-18.97-79.637-32.38-9.121-6.036-16.8-5.04-18.673 2.422-1.863 7.423.004 10.141 12.463 18.146 22.823 14.664 62.897 29.109 94.684 34.129 18.835 2.974 74.028.837 95.3-3.69m-16.568-67.646c48.513-6.34 103.983-28.976 147.129-60.041 17.381-12.515 20.787-18.185 14.857-24.736-5.329-5.889-10.6-4.629-24.314 5.81-38.464 29.28-87.538 50.039-138.385 58.541-26.83 4.486-73.05 3.15-95.08-2.75-28.281-7.574-51.111-17.213-69.342-29.278-12.128-8.026-23.774-3.84-20.923 7.52 1.49 5.94 25.06 20.542 47.615 29.501 43.49 17.273 87.133 22.138 138.443 15.433m15.155-72.647c42.483-8.585 84.967-26.313 121.736-50.8 25.126-16.732 29.881-22.03 26.478-29.5-2.05-4.497-5.279-5.857-11.816-4.975-1.43.193-7.757 4.272-14.06 9.065-56.784 43.185-139.46 67.765-203.06 60.372-36.036-4.19-68.098-14.963-97.27-32.684-6.336-3.849-12.896-6.998-14.578-6.998-4.543 0-9.268 5.564-9.268 10.913 0 12.47 59.181 39.69 100.77 46.347 8.15 1.305 16.152 2.697 17.782 3.094 8.279 2.017 65.947-1.33 83.286-4.834" style="font-variation-settings:&quot;wght&quot;900;opacity:1;fill:#80b3ff;fill-opacity:.972549;stroke:none;stroke-width:9.87937;stroke-linecap:round;stroke-linejoin:round;stroke-miterlimit:4.7;stroke-dasharray:none;stroke-opacity:1" transform="scale(.26458)"/><path id="path32" d="M495.944 942.535c-25.612-4.23-50.206-12.006-73.107-23.116-17.392-8.437-23.228-12.544-36.09-25.394-12.246-12.236-16.899-18.662-23.053-31.84l-7.711-16.51-.657-304.286-.657-304.284 10.868 10.983c26.45 26.732 71.208 48.402 116.163 56.242 25.613 4.466 76.155 3.897 102.325-1.154 59.31-11.446 112.444-37.693 157.492-77.801l18.72-16.668 1.383 138.679c.76 76.273 1.071 213.812.691 305.64-.643 155.428-.94 167.706-4.305 177.736-16.213 48.34-79.311 92.1-157.112 108.959-24.857 5.386-80.362 6.875-104.95 2.814m81.258-62.475c53.267-9.026 118.417-37.774 149.744-66.076 8.666-7.83 10.037-13.256 4.81-19.033-5.03-5.557-9.067-4.473-25.758 6.914-35.235 24.04-69.177 40.206-104.789 49.908-67.947 18.511-121.651 13.43-183.012-17.316-27.63-13.844-33.563-14.424-34.487-3.37-.501 5.991.427 8.008 5.745 12.483 18.105 15.234 71.231 35.025 105.501 39.302 19.38 2.418 59.47 1.048 82.246-2.812m17.536-73.545c43.126-10.312 89.874-31.338 122.005-54.873 16.606-12.163 21.002-18.752 16.892-25.32-4.367-6.98-11.947-4.89-33.793 9.317-39.35 25.59-75.36 41.175-117.947 51.047-12.641 2.93-23.524 3.642-54.337 3.554-35.32-.1-40.175-.55-58.288-5.392-12.862-3.438-29.625-10.22-48.026-19.43-25.926-12.974-28.668-13.932-33.096-11.562-6.639 3.553-6.372 11.567.605 18.19 12.974 12.313 54.099 29.835 87.433 37.252 14.286 3.178 22.845 3.62 57.3 2.957 34.664-.666 43.497-1.494 61.252-5.74m-6.915-68.572c28.001-5.876 51.652-14.138 79.232-27.678 39.542-19.413 67.97-39.524 67.97-48.085 0-4.955-5.508-11.13-9.929-11.13-1.864 0-12.173 5.908-22.91 13.127-23.431 15.756-63.93 35.674-89.514 44.025-29.815 9.732-49.045 12.722-82.15 12.774-45.64.072-74.178-6.866-113.21-27.525-25.48-13.486-32.654-14.016-33.612-2.484-.55 6.628.192 7.898 7.903 13.514 19.41 14.136 55.714 28.669 88.785 35.54 24.856 5.165 77.804 4.141 107.435-2.078m.865-70.158c40.934-8.972 89.14-29.92 123.607-53.712 20.531-14.173 25.769-20.965 21.467-27.837-4.656-7.438-12.602-5.197-35.631 10.05-35.88 23.754-75.8 41.157-114.345 49.85-18.707 4.22-72.871 6.045-91.793 3.095-21.483-3.35-53.325-14.584-76.36-26.94-11.032-5.917-21.748-10.758-23.814-10.758-10.64 0-11.534 12.733-1.51 21.534 15.613 13.709 65.157 32.999 98.72 38.437 13.293 2.154 85.09-.525 99.659-3.719m-3.05-70.061c28.52-6.085 54.487-14.818 80.086-26.935 24.793-11.734 58.828-33.413 65.225-41.545 4.563-5.801 5.276-12.539 1.705-16.11-4.923-4.923-12.577-2.209-32.644 11.576-35.092 24.105-83.53 44.63-122.99 52.115-18.844 3.575-69.104 4.167-88.98 1.05-20.17-3.166-48.568-13.146-70.567-24.803-19.7-10.438-24.635-11.948-31.028-9.495-5.436 2.086-3.743 11.558 3.296 18.446 13.5 13.21 61.707 32.418 96.91 38.615 23.106 4.068 73.169 2.594 98.986-2.914m4.16-70.963c41.21-9.079 84.313-27.303 118.553-50.126 15.175-10.115 26.674-21.06 26.674-25.387 0-14.188-9.96-13.209-34.815 3.423-25.32 16.943-52.199 30.35-80.226 40.014-36.675 12.646-50.755 14.922-92.426 14.94-31.855.014-38.68-.56-53.107-4.469-22.318-6.047-48.718-16.802-64.273-26.184-17.893-10.791-26.858-9.967-26.858 2.469 0 7.578 7.497 13.936 28.65 24.295 20.047 9.817 41.819 17.498 65.168 22.99 21.67 5.098 85.667 3.981 112.66-1.965m-32.72-65.55c49.996-4.682 105.445-24.678 149.952-54.074 25.474-16.825 33.008-26.906 25.624-34.29-4.928-4.928-12.596-2.153-34.095 12.34-37.055 24.98-76.802 41.778-119.628 50.558-18.158 3.723-25.307 4.14-57.3 3.344-32.367-.807-38.578-1.518-54.226-6.214-22.577-6.775-43.406-15.454-55.511-23.131-16.83-10.673-28.574-9.643-28.574 2.508 0 4.935 1.977 7.008 14.325 15.023 32.096 20.834 81.141 34.775 125.962 35.804 5.977.138 21.04-.703 33.472-1.867m5.058-71.063c46.88-4.442 100.446-24.038 143.251-52.403 29.422-19.496 35.602-28.473 24.576-35.698-4.72-3.093-5.487-3.096-11.361-.041-3.465 1.801-13.413 8.24-22.106 14.309-31.18 21.765-72.155 39.244-113.922 48.597-17.027 3.813-26.043 4.572-54.028 4.55-30.302-.023-35.664-.564-54.784-5.526-24.897-6.462-42.466-13.426-62.463-24.759-19.697-11.162-27.98-10.605-27.98 1.88 0 6.868 7.79 13.5 27.48 23.398 47.723 23.988 91.286 31.384 151.337 25.693" style="font-variation-settings:&quot;wght&quot;900;opacity:1;fill:#80b3ff;fill-opacity:.972549;stroke:none;stroke-width:9.87937;stroke-linecap:round;stroke-linejoin:round;stroke-miterlimit:4.7;stroke-dasharray:none;stroke-opacity:1" transform="scale(.26458)"/><path id="path33" d="M496.932 942.671c-67.716-11.343-113.126-38.728-132.991-80.202l-8.044-16.795-.614-303.79c-.337-167.086-.334-303.792.008-303.791s2.85 2.649 5.575 5.887c7.904 9.393 35.467 29.223 52.575 37.825 20.009 10.06 46.672 18.784 69.545 22.753 25.244 4.38 85.863 2.746 110.294-2.974 56.47-13.22 106.135-38.724 148.006-76.004l18.798-16.736 1.36 110.948c1.847 150.483 1.269 479.219-.872 495.953-2.096 16.38-8.526 31.024-20.402 46.457-27.787 36.111-83.336 66.445-143.456 78.336-22.592 4.47-78.678 5.668-99.782 2.133m90.89-64.373c28.362-6.03 57.236-16.127 82.629-28.894 38.545-19.381 64.574-38.376 64.574-47.123 0-5.568-6.653-11.731-11.34-10.506-1.962.514-12.884 7-24.27 14.413-27.842 18.13-54.049 30.985-82.245 40.344-31.78 10.55-50.612 14.218-79.26 15.44-41.02 1.748-73.436-5.559-117.422-26.469-30.861-14.67-35.87-15.272-36.778-4.417-.501 5.992.427 8.01 5.745 12.484 18.06 15.197 68.335 33.987 105.501 39.43 15.743 2.306 73.708-.629 92.867-4.702m6.931-71.772c38.092-8.964 79.75-26.837 111.622-47.89 26.269-17.351 34.343-28.901 24.51-35.061-4.92-3.083-11.092-.58-33.088 13.414-55.843 35.529-102.48 51.543-156.408 53.706-49.167 1.972-75.962-3.787-121.826-26.181-14.298-6.982-26.676-12.694-27.507-12.694-3.32 0-8.736 6.8-8.736 10.969 0 12.723 51.366 38.035 96.07 47.34 10.085 2.1 24.04 2.63 54.096 2.056 34.372-.656 43.649-1.512 61.267-5.659m-34.02-64.68c40.421-4.36 77.375-16.028 116.992-36.94 35.658-18.822 57.3-34.96 57.3-42.726 0-4.852-5.477-11.13-9.71-11.13-1.742 0-10.656 5.014-19.808 11.14-61.595 41.24-131.062 62.995-188.728 59.106-39.365-2.655-64.49-9.647-99.18-27.601-27.781-14.378-34.28-14.38-34.28-.014 0 12.666 57.27 39.34 100.77 46.935 20.298 3.544 50.677 4.032 76.643 1.23m3.064-71.154c46.62-4.09 100.806-24.532 146.53-55.28 23.245-15.632 29.668-24.957 21.73-31.545-4.948-4.106-13.792-.803-34.465 12.872-34.333 22.71-78.008 41.463-115.697 49.677-18.356 4-71.146 5.744-89.06 2.942-21.259-3.326-50.745-13.616-75.515-26.352-12.271-6.31-23.875-11.473-25.785-11.473-9.39 0-11.097 12.367-2.782 20.16 14.843 13.909 69.601 35.591 100.276 39.705 12.288 1.648 52.232 1.27 74.768-.706m20.824-72.908c42.04-8.636 79.922-23.72 116.442-46.364 29.658-18.39 39.527-30.35 31.591-38.286-4.579-4.579-11.034-2.246-32.392 11.706-39.155 25.577-86.85 45.53-124.552 52.105-20.176 3.518-67.855 3.938-88.228.777-19.059-2.957-49.748-13.85-72.273-25.653-10.173-5.33-20.103-9.692-22.067-9.692-12.748 0-13.528 10.024-1.618 20.784 13.843 12.506 58.981 30.799 89.601 36.312 6.52 1.174 14.078 2.531 16.795 3.016 12.77 2.28 67.031-.665 86.7-4.705m1.226-70.172c23.403-4.85 60.567-17.65 82.986-28.582 36.007-17.557 66.227-39.681 66.162-48.438-.1-13.299-10.728-11.606-37.771 6.018-34.884 22.733-78.857 41.39-116.37 49.373-23.72 5.048-84.338 5.126-102.692.132-22.475-6.114-45.89-15.274-64.46-25.217-9.916-5.309-19.741-9.652-21.834-9.652-10.65 0-11.61 12.71-1.622 21.479 13.422 11.785 54.816 28.768 87.916 36.07 14.097 3.11 22.824 3.576 54.336 2.9 24.297-.522 43.118-1.962 53.349-4.083m-28.768-66.4c49.995-4.683 105.444-24.68 149.951-54.075 21-13.87 28.425-21.374 27.645-27.938-1.48-12.446-10.52-11.32-33.058 4.115-33.069 22.647-67.297 38.308-106.778 48.856-20.836 5.566-25.92 6.147-58.39 6.668-19.56.313-41.245-.273-48.187-1.304-18.724-2.78-51.915-14.52-72.48-25.64-23.736-12.834-32.462-12.748-32.462.32 0 10.106 34.098 29.117 72.337 40.33 33.154 9.721 62.97 12.27 101.422 8.668m26.792-73.918c39.075-6.965 87.946-27.154 124.044-51.243 18.485-12.335 27.11-20.883 27.11-26.866 0-3.664-6.844-9.84-10.903-9.84-1.167 0-12.306 6.807-24.753 15.127-53.241 35.587-107.482 53.858-163.907 55.21-44.718 1.073-78.143-6.735-119.001-27.797-11.658-6.01-22.816-10.926-24.797-10.926-10.064 0-11.376 12.905-2.105 20.706 15.221 12.808 61.803 31.46 93.65 37.5 19.77 3.75 74.876 2.725 100.662-1.871" style="font-variation-settings:&quot;wght&quot;900;opacity:1;fill:#acf;fill-opacity:.972549;stroke:none;stroke-width:9.87937;stroke-linecap:round;stroke-linejoin:round;stroke-miterlimit:4.7;stroke-dasharray:none;stroke-opacity:1" transform="scale(.26458)"/><path id="path34" d="M477.122 282.286c-40.418-9.361-74.746-27.173-97.545-50.614-9.808-10.085-12.346-13.67-18.408-26.013-6.304-12.837-8.51-26.248-6.269-38.123 7.579-40.166 52.592-72.716 113.887-82.355 19.565-3.077 52.673-2.16 70.604 1.954 26.021 5.972 46.869 16.46 61.472 30.925 11.798 11.687 16.69 21.312 16.648 32.758-.09 24.973-25.897 46.563-63.494 53.12-15.073 2.628-26 2.648-40.447.074-11.116-1.981-15.235-1.377-17.908 2.627-.565.845-1.036 18.984-1.048 40.308-.017 30.127-.41 38.75-1.768 38.673-.96-.053-8.036-1.554-15.724-3.334" style="font-variation-settings:&quot;wght&quot;900;opacity:1;fill:#80b3ff;fill-opacity:.972549;stroke:none;stroke-width:6.98577;stroke-linecap:round;stroke-linejoin:round;stroke-miterlimit:4.7;stroke-dasharray:none;stroke-opacity:1" transform="scale(.26458)"/></g></g></svg>