<svg xmlns="http://www.w3.org/2000/svg" xml:space="preserve" id="svg1" width="1080" height="1080" viewBox="0 0 285.75 285.75"><g id="layer1" style="display:inline;opacity:1;mix-blend-mode:multiply"><g id="g12" transform="translate(-41.376 -38.737)scale(1.25954)"><path id="path6" d="M108.102 101.346v41.529l38.183 28.722 38.183-28.722v-41.53l-38.183 28.617z" style="font-variation-settings:&quot;wght&quot;900;opacity:1;fill:#df4f3e;fill-opacity:1;stroke-width:1.32292;stroke-linecap:round;stroke-linejoin:round;stroke-miterlimit:4.7"/><path id="path7" d="M108.102 142.875 76.34 118.983v68.864a8.77 8.77 0 0 0 8.772 8.771h22.99z" style="font-variation-settings:&quot;wght&quot;900;opacity:1;fill:#4784f1;fill-opacity:1;stroke-width:1.28159;stroke-linecap:round;stroke-linejoin:round;stroke-miterlimit:4.7"/><path id="path5" d="M76.34 105.993v12.99l31.762 23.892v-41.53l-8.994-6.74a14.232 14.232 0 0 0-22.768 11.388" style="font-variation-settings:&quot;wght&quot;900;opacity:1;fill:#bb3128;fill-opacity:1;stroke-width:1.28159;stroke-linecap:round;stroke-linejoin:round;stroke-miterlimit:4.7"/><path id="path11" d="m184.468 142.875 31.761-23.892v68.864a8.77 8.77 0 0 1-8.77 8.771h-22.991Z" style="font-variation-settings:&quot;wght&quot;900;opacity:1;fill:#4ea556;fill-opacity:1;stroke-width:1.28159;stroke-linecap:round;stroke-linejoin:round;stroke-miterlimit:4.7"/><path id="path12" d="M216.23 105.993v12.99l-31.762 23.892v-41.53l8.994-6.74a14.232 14.232 0 0 1 22.767 11.388" style="font-variation-settings:&quot;wght&quot;900;opacity:1;fill:#f5be2b;fill-opacity:1;stroke-width:1.28159;stroke-linecap:round;stroke-linejoin:round;stroke-miterlimit:4.7"/></g></g></svg>