<svg xmlns="http://www.w3.org/2000/svg" xml:space="preserve" id="svg1" width="1080" height="1080" viewBox="0 0 285.75 285.75"><g id="layer1" style="display:inline;opacity:1;mix-blend-mode:multiply"><g id="g4" transform="translate(-3.102 6.24)"><path id="path33" d="M250.17 132.856q-.352-.282-.352-.847 0-.564.07-1.129.07-.635.142-1.199.07-.635-.212-1.058-1.835-.565-3.387-.141-1.481.423-2.751 1.41-1.27.918-2.258 2.258-.988 1.27-1.694 2.4 2.4.564 5.01 1.34 2.61.705 4.586 1.975 1.976 1.2 2.963 3.034.988 1.835.282 4.586-.423 1.623-1.975 3.458-1.482 1.763-3.528 3.245-1.975 1.552-4.304 2.61-2.328 1.059-4.445 1.27-2.68.283-4.797-.705-2.117-.917-2.47-3.175-.353-1.834.494-3.669.847-1.905 1.693-3.245.424-.706.988-1.482.635-.847 1.27-1.411.635-.635 1.27-.776.635-.212 1.129.423.282.423 0 .988-.282.564-.706 1.34-.423.777-.846 1.764-.353.988-.212 2.117.282.706 1.835.353t3.245-1.2q1.764-.917 3.175-2.046 1.482-1.2 1.623-2.258.141-.987-.988-1.622-1.058-.706-2.61-1.13-1.482-.493-3.034-.846-1.482-.353-2.188-.705-1.763-.847-2.61-2.752-.776-1.905.212-4.304.564-1.411 1.834-2.752 1.34-1.41 2.681-2.61.776-.706 2.258-1.552 1.552-.918 3.316-1.411 1.834-.565 3.598-.424 1.835.141 3.246 1.552.635.635.917 1.905.353 1.2.141 2.54-.14 1.27-.776 2.4-.635 1.128-1.834 1.481" style="font-size:70.5554px;font-family:&quot;Darty Zhedant&quot;;-gravit-designer-font-specification:&quot;Darty Zhedant, Normal&quot;;text-align:end;letter-spacing:2.11667px;word-spacing:.0132292px;text-anchor:end;stroke-width:7.9375;stroke-linecap:round;stroke-linejoin:round;stroke-miterlimit:4.7;paint-order:stroke markers fill"/><path id="path32" d="M214.47 143.863q-.212.635-.353 1.622-.07.918 0 1.835t.352 1.693q.353.706.988.917 1.27.494 2.4.283 1.199-.212 2.186-.777.988-.564 1.764-1.199.847-.706 1.482-1.129.423-.282 1.27-1.129.847-.917 1.764-1.764.917-.917 1.693-1.481.776-.635.988-.353.635.705.141 1.905t-1.411 2.399q-.847 1.129-1.764 2.116l-1.129 1.13q-1.2 1.128-2.61 2.328-1.341 1.27-2.964 2.116t-3.528 1.13q-1.905.281-4.092-.565-1.058-.353-2.116-1.2-.988-.776-1.835-1.905-.846-1.058-1.41-2.399-.565-1.34-.636-2.822-.141-2.116.353-4.163.564-2.046 1.482-3.88.917-1.905 2.116-3.598 1.2-1.694 2.47-3.105 1.058-1.129 2.398-2.258 1.412-1.199 2.893-2.116 1.482-.917 2.964-1.552 1.552-.635 2.963-.847 2.117-.282 3.81.212 1.693.423 2.681 1.552 1.058 1.129 1.27 2.822.212 1.623-.564 3.669-.635 1.623-1.976 3.386t-3.034 3.317-3.528 2.68q-1.834 1.059-3.457 1.27-1.129.212-2.258.071-1.129-.211-1.764-.211m1.199-4.093q4.233-1.622 7.338-4.303 3.175-2.682 4.797-6.915-2.61-.07-4.445 1.058-1.763 1.059-3.104 2.752-1.34 1.693-2.399 3.669t-2.187 3.74" style="font-size:70.5554px;font-family:&quot;Darty Zhedant&quot;;-gravit-designer-font-specification:&quot;Darty Zhedant, Normal&quot;;text-align:end;letter-spacing:2.11667px;word-spacing:.0132292px;text-anchor:end;stroke-width:7.9375;stroke-linecap:round;stroke-linejoin:round;stroke-miterlimit:4.7;paint-order:stroke markers fill"/><path id="path31" d="M204.784 99.87c-1.627-.059-3.236.294-4.756.888-1.539.6-3 1.453-4.325 2.397-2.989 2.131-5.463 4.849-6.86 6.826q-.298.423-.544.817c-8.17-.319-16.03-.97-21.363-1.27q-.777-.045-1.49-.08c-2.878-.142-5.303-.184-7.238-.148a43 43 0 0 0-3.236.164 17 17 0 0 0-2.232.336c.772.184 1.4.366 2.17.55.8.19 1.84.422 3.147.678 1.867.367 4.296.789 7.133 1.176q.708.097 1.481.196c4.709.602 12.32 1.387 19.985 1.798q-.173.224-.338.454a34 34 0 0 0-2.258 3.881 47 47 0 0 0-1.834 4.586q-.847 2.4-1.764 5.08-1.552 4.728-2.188 10.584a296 296 0 0 0-.564 4.515 50 50 0 0 0-.211 4.516q.07 2.115.564 3.739.564 1.693 1.835 2.399a213 213 0 0 1 3.457-5.433 84 84 0 0 1 3.669-5.15 50 50 0 0 1 4.233-4.657 29 29 0 0 1 5.009-3.88q-1.834 2.398-3.598 5.503-1.764 3.033-3.175 6.632a71 71 0 0 0-2.328 7.55 47 47 0 0 0-1.01 6.452l-.339.003-.508.007c-12.897.17-22.318.379-31.388 1.064-6.294.476-11.349 1.129-14.474 1.545 3.335-.274 8.033-.566 14.516-.795 9.352-.33 18.17-.37 31.347-.214l.508.006.225.003-.006.114a33 33 0 0 0-.07 3.74q.14 1.975.634 3.456.495 1.482 1.411 2.329.404.345.924.491c.371.229.83.429 1.383.554a5.8 5.8 0 0 0 2.05.075 8 8 0 0 0 1.375-.324 10.6 10.6 0 0 0 3.123-1.664c.867-.666 1.693-1.518 2.252-2.504.264-.468.475-.977.59-1.515a4 4 0 0 0 .022-1.641 3.8 3.8 0 0 0-.702-1.543c-.351-.465-.808-.865-1.35-1.208-.545-.345-1.187-.638-1.917-.884a17 17 0 0 0-2.548-.622 31 31 0 0 0-3.1-.358 36 36 0 0 1 1.92-5.156 55.5 55.5 0 0 1 3.81-6.914 229 229 0 0 1 4.304-6.562l2.54-3.668q1.341-1.835 2.117-3.74.282-.777.423-1.834a8.5 8.5 0 0 0 0-2.188 4.95 4.95 0 0 0-.494-1.905q-.353-.846-1.058-1.129a3.4 3.4 0 0 0-1.553-.211 7.2 7.2 0 0 0-1.622.352 10 10 0 0 0-1.623.706q-.705.353-1.34.635-4.164 2.188-7.268 5.221a327 327 0 0 0-5.715 5.715q1.412-5.433 3.81-10.865a150 150 0 0 1 5.08-10.301q.423-.705.917-1.553a18 18 0 0 0 .988-1.834q.36-.67.609-1.378c1.026 0 2.035-.011 3.016-.037 3.187-.085 6.126-.32 8.515-.784 1.189-.23 2.28-.525 3.218-.906a9 9 0 0 0 1.336-.667 5.7 5.7 0 0 0 1.14-.913c.344-.361.636-.782.84-1.267a3.9 3.9 0 0 0 .3-1.553 4.7 4.7 0 0 0-.297-1.552 7 7 0 0 0-.744-1.446 18 18 0 0 0-.715-1.012c-.907-1.189-1.926-2.211-3.105-2.98a9.2 9.2 0 0 0-2.262-1.076 9 9 0 0 0-2.415-.411zm1.109 4.877q.141-.003.282.004c.387.02.79.107 1.212.283.713.298 1.46.845 2.197 1.7q.29.338.588.748c.194.264.313.477.386.641.07.159.09.258.098.312a.3.3 0 0 1 .003.096.44.44 0 0 1-.11.178 2 2 0 0 1-.413.34q-.3.197-.784.402-.975.41-2.546.724c-2.109.418-4.827.649-7.93.738q-.55.016-1.113.025a46 46 0 0 1 2.297-2.594c.881-.911 1.757-1.7 2.62-2.308.842-.593 1.634-.988 2.37-1.17q.42-.105.843-.119m-16.213 58.028q1.777.174 3.172.49a13 13 0 0 1 2.198.686c.592.252 1.045.521 1.38.79.332.265.535.519.653.742.116.219.155.416.156.593q.001.27-.118.588a3.2 3.2 0 0 1-.393.718c-.393.555-.972 1.106-1.652 1.606-1.627 1.197-4.562 3.163-5.371.839q-.776-3.315-.071-6.844z" style="font-size:70.5554px;font-family:&quot;Darty Zhedant&quot;;-gravit-designer-font-specification:&quot;Darty Zhedant, Normal&quot;;text-align:end;letter-spacing:2.11667px;word-spacing:.0132292px;text-anchor:end;stroke-width:7.9375;stroke-linecap:round;stroke-linejoin:round;stroke-miterlimit:4.7;paint-order:stroke markers fill"/><path id="path30" d="M171.078 132.856q-.353-.282-.353-.847 0-.564.07-1.129.071-.635.142-1.199.07-.635-.212-1.058-1.834-.565-3.387-.141-1.481.423-2.751 1.41-1.27.918-2.258 2.258-.988 1.27-1.693 2.4 2.399.564 5.01 1.34 2.61.705 4.585 1.975 1.976 1.2 2.964 3.034.987 1.835.282 4.586-.424 1.623-1.976 3.458-1.481 1.763-3.528 3.245-1.975 1.552-4.303 2.61-2.329 1.059-4.445 1.27-2.682.283-4.798-.705-2.117-.917-2.47-3.175-.352-1.834.494-3.669.847-1.905 1.694-3.245.423-.706.987-1.482.635-.847 1.27-1.411.635-.635 1.27-.776.635-.212 1.13.423.281.423 0 .988-.283.564-.706 1.34-.424.777-.847 1.764-.353.988-.212 2.117.283.706 1.835.353t3.245-1.2q1.764-.917 3.175-2.046 1.482-1.2 1.623-2.258.141-.987-.988-1.622-1.058-.706-2.61-1.13-1.482-.493-3.034-.846-1.482-.353-2.187-.705-1.764-.847-2.61-2.752-.777-1.905.21-4.304.565-1.411 1.835-2.752 1.34-1.41 2.681-2.61.776-.706 2.258-1.552 1.552-.918 3.316-1.411 1.835-.565 3.599-.424 1.834.141 3.245 1.552.635.635.917 1.905.353 1.2.141 2.54-.14 1.27-.776 2.4-.635 1.128-1.834 1.481" style="font-size:70.5554px;font-family:&quot;Darty Zhedant&quot;;-gravit-designer-font-specification:&quot;Darty Zhedant, Normal&quot;;text-align:end;letter-spacing:2.11667px;word-spacing:.0132292px;text-anchor:end;stroke-width:7.9375;stroke-linecap:round;stroke-linejoin:round;stroke-miterlimit:4.7;paint-order:stroke markers fill"/><path id="path29" d="M151.604 125.66q.494.775 0 2.68-.423 1.835-1.34 4.163-.847 2.328-1.905 4.939-1.058 2.54-1.764 4.657-.635 1.834-1.2 3.74-.493 1.834.424 3.597.282.353.564.494.353.07.635.212.283.07.494.212.282.14.353.564.141.706-.212 1.058-.352.424-.987.565-.565.212-1.27.212t-1.2-.212q-1.2-.423-2.187-1.34-.988-.988-1.623-2.329-.635-1.411-.776-3.104-.141-1.764.494-3.67-1.552 1.694-2.822 3.74-1.27 1.976-2.822 3.951-.988 1.2-2.047 2.47-.987 1.27-2.257 2.257t-2.893 1.623q-1.552.635-3.528.635-1.905 0-3.034-.776-1.129-.705-1.623-2.046-.493-1.27-.493-2.963.07-1.694.564-3.599.635-2.68 2.61-5.785 1.976-3.105 4.657-5.786 2.681-2.751 5.856-4.656 3.175-1.976 6.21-2.4 1.975-.21 3.174.212 1.2.424 2.328 1.13.635-.706 1.482-1.906t1.764-2.116q.988-.918 2.046-1.2 1.129-.282 2.328.776m-16.792 9.948q-1.481 1.128-3.104 3.175-1.623 1.975-2.893 4.233-1.2 2.258-1.764 4.445-.564 2.117.07 3.457 2.188-1.552 4.164-3.669 1.975-2.187 3.88-4.445 1.905-2.187 3.951-4.445 2.046-2.257 3.246-4.939-1.059-.635-2.187-.564-1.059.07-2.047.494-.917.423-1.834 1.129-.847.635-1.482 1.129" style="font-size:70.5554px;font-family:&quot;Darty Zhedant&quot;;-gravit-designer-font-specification:&quot;Darty Zhedant, Normal&quot;;text-align:end;letter-spacing:2.11667px;word-spacing:.0132292px;text-anchor:end;stroke-width:7.9375;stroke-linecap:round;stroke-linejoin:round;stroke-miterlimit:4.7;paint-order:stroke markers fill"/><path id="path28" d="M89.586 150.283q1.623-1.058 3.528-2.963 1.905-1.976 3.81-4.234 1.976-2.257 3.74-4.515 1.834-2.328 3.316-4.163.211-.282.705-1.058.565-.776 1.2-1.552.635-.847 1.27-1.411.635-.635 1.128-.565.706.212.777 1.129.07.847-.142 1.976-.14 1.058-.493 2.187-.283 1.129-.424 1.764-.564 2.398-.846 4.374t-.353 4.445q2.328-3.74 4.445-8.114 2.116-4.374 3.95-9.101.283-.706.565-1.623.283-.988.635-1.835.353-.917.776-1.481t1.059-.565q.635.07.846.635.212.565.142 1.34 0 .706-.142 1.412-.14.705-.211.988-.776 3.527-1.976 6.844-1.2 3.316-2.258 6.138-.564 1.34-1.34 3.81-.706 2.399-1.835 4.727-1.128 2.328-2.68 3.951-1.482 1.623-3.528 1.411-1.412-.14-2.258-1.27-.776-1.129-1.13-2.751-.281-1.694-.21-3.528.14-1.905.493-3.599-1.623 1.623-2.822 3.74-1.129 2.117-2.752 3.88-.776.847-1.834 1.976-.988 1.2-2.258 2.187-1.27.988-2.822 1.482-1.482.494-3.175.07-2.752-.705-4.022-3.174-1.27-2.47-.988-6.421.07-1.482.635-3.528.635-2.046 1.553-4.233.987-2.258 2.116-4.516 1.2-2.257 2.47-4.304 1.34-2.046 2.61-3.668 1.34-1.623 2.47-2.54.846-.635 1.764-.847.917-.282 1.693 0 .776.212 1.27.917.564.706.635 1.976 0 .635-.353 1.693-.353.988-.847 2.046-.423.988-.917 1.976-.494.917-.705 1.481-1.623 4.022-3.316 8.608-1.623 4.516-2.964 8.396" style="font-size:70.5554px;font-family:&quot;Darty Zhedant&quot;;-gravit-designer-font-specification:&quot;Darty Zhedant, Normal&quot;;text-align:end;letter-spacing:2.11667px;word-spacing:.0132292px;text-anchor:end;stroke-width:7.9375;stroke-linecap:round;stroke-linejoin:round;stroke-miterlimit:4.7;paint-order:stroke markers fill"/><path id="text1" d="M72.23 114.653q-.071-.988.564-2.117.706-1.129 1.34-2.258.706-1.129.988-2.046.353-.988-.352-1.552-2.258-.776-4.657-.353-2.328.353-4.516 1.482-2.116 1.058-3.88 2.61-1.694 1.553-2.681 3.175 2.399 1.2 4.939 2.046 2.61.847 5.009 1.835 2.47.917 4.586 2.117 2.187 1.199 3.669 3.033 1.552 1.764 2.328 4.375.776 2.54.424 6.209-.283 3.527-1.764 7.055-1.482 3.457-3.88 6.703-2.33 3.246-5.434 5.927-3.033 2.751-6.49 4.656-3.387 1.905-7.056 2.823-3.598.917-7.126.493-2.187-.211-4.234-1.481-1.975-1.27-3.316-3.246-1.27-1.975-1.552-4.586-.282-2.54 1.058-5.433.918-2.046 2.611-4.092t3.81-3.951q2.187-1.905 4.657-3.598 2.47-1.764 5.01-3.105 2.54-1.41 4.938-2.399 2.399-1.058 4.374-1.481-1.834-1.552-4.092-2.681-2.187-1.13-4.092-2.47-1.905-1.41-3.246-3.316-1.27-1.975-1.34-5.08 0-2.752 1.482-4.939 1.481-2.258 3.81-3.88 2.328-1.623 5.08-2.61 2.751-.989 5.22-1.2 1.623-.212 3.246-.07 1.693.14 3.034.634 1.411.494 2.328 1.411.918.918 1.059 2.329.211 1.693-.353 3.033-.565 1.341-1.482 2.4t-2.046 1.975q-1.058.847-1.975 1.623m-5.292 14.605q-1.482.14-3.88 1.129-2.4.917-5.151 2.469-2.752 1.482-5.503 3.457-2.682 1.905-4.728 4.022t-3.104 4.304q-.988 2.187-.353 4.162.212.777 1.058 1.623.847.847 1.976 1.482 1.2.705 2.61 1.058 1.412.353 2.752.212 2.822-.282 6.21-1.693 3.456-1.412 6.42-3.74 2.963-2.399 4.868-5.715 1.975-3.316 1.834-7.479-.07-1.975-1.41-3.316-1.27-1.34-2.611-1.27-.141 0-.494-.353-.353-.352-.494-.352" style="font-size:70.5554px;font-family:&quot;Darty Zhedant&quot;;-gravit-designer-font-specification:&quot;Darty Zhedant, Normal&quot;;text-align:end;letter-spacing:2.11667px;word-spacing:.0132292px;text-anchor:end;stroke-width:7.9375;stroke-linecap:round;stroke-linejoin:round;stroke-miterlimit:4.7;paint-order:stroke markers fill"/><path id="path4" d="M117.796 125.367c5.06-22.675-9.227-10.416-7.635-6.04 2.018 5.551 20.735.003 23.932-1.595" style="fill:none;stroke:#000;stroke-width:2.91042;stroke-linecap:round;stroke-linejoin:round;stroke-miterlimit:4.7;stroke-dasharray:none;paint-order:stroke markers fill"/></g></g></svg>