<svg xmlns="http://www.w3.org/2000/svg" xmlns:xlink="http://www.w3.org/1999/xlink" xml:space="preserve" id="svg1" width="1080" height="1080" viewBox="0 0 285.75 285.75"><defs id="defs1"><clipPath id="clipPath29" clipPathUnits="userSpaceOnUse"><rect id="rect29" width="66.909" height="19.501" x="58.075" y="122.406" ry="9.751" style="fill:none;fill-opacity:1;stroke:#000;stroke-width:.79375;stroke-linecap:round;stroke-linejoin:round;stroke-miterlimit:4.7;stroke-dasharray:none;paint-order:markers fill stroke"/></clipPath><filter id="filter81" width="1.04" height="1.031" x="-.02" y="-.016" style="color-interpolation-filters:sRGB"><feGaussianBlur id="feGaussianBlur81" stdDeviation=".129"/></filter></defs><g id="layer1" style="display:inline;opacity:1;mix-blend-mode:multiply"><g id="g52" transform="translate(218.807 -161.826)"><path id="path51" d="M129.771 132.157c0 8.028-6.508 14.537-14.537 14.537s-14.537-6.509-14.537-14.537 6.509-14.537 14.537-14.537 14.537 6.508 14.537 14.537m-1.595 0c0 7.147-5.795 12.941-12.942 12.941s-12.941-5.794-12.941-12.941 5.794-12.942 12.941-12.942 12.942 5.794 12.942 12.942m-1.596 0c0 6.266-5.08 11.346-11.346 11.346s-11.346-5.08-11.346-11.346c0-6.267 5.08-11.346 11.346-11.346s11.346 5.08 11.346 11.346m-1.595 0c0 5.385-4.366 9.75-9.75 9.75-5.386 0-9.752-4.365-9.752-9.75 0-5.386 4.366-9.751 9.751-9.751s9.75 4.365 9.75 9.75m-9.105-6.946v2.071h-1.625v-2.031a6.97 6.97 0 0 0-4.462 2.543l1.657.957-1.074 1.86-1.653-.954a6.98 6.98 0 0 0 .049 5.12l1.735-1.002.812 1.407-1.766 1.02a6.97 6.97 0 0 0 4.702 2.86v-2.185h1.625v2.225a6.97 6.97 0 0 0 4.937-2.764l-2.002-1.156.813-1.407 2.004 1.158a6.98 6.98 0 0 0 .051-5.433l-1.924 1.112-1.075-1.861 1.884-1.089a6.97 6.97 0 0 0-4.688-2.45m-30.326 6.946c0 9.79-7.937 17.727-17.728 17.727s-17.728-7.937-17.728-17.727c0-9.791 7.937-17.728 17.728-17.728 9.79 0 17.728 7.937 17.728 17.728m-1.596 0c0 8.91-7.222 16.132-16.132 16.132s-16.133-7.223-16.133-16.132 7.223-16.133 16.133-16.133 16.132 7.223 16.132 16.133m-1.595 0c0 8.028-6.509 14.537-14.537 14.537s-14.537-6.509-14.537-14.537 6.508-14.537 14.537-14.537 14.537 6.508 14.537 14.537m-1.596 0c0 7.147-5.794 12.941-12.941 12.941s-12.942-5.794-12.942-12.941 5.794-12.942 12.942-12.942c7.147 0 12.941 5.794 12.941 12.942m-1.595 0c0 6.266-5.08 11.346-11.346 11.346s-11.346-5.08-11.346-11.346c0-6.267 5.08-11.346 11.346-11.346s11.346 5.08 11.346 11.346m-1.596 0c0 5.385-4.365 9.75-9.75 9.75s-9.75-4.365-9.75-9.75c0-5.386 4.365-9.751 9.75-9.751s9.75 4.365 9.75 9.75m-9.105-6.946v2.071h-1.624v-2.031a6.97 6.97 0 0 0-4.463 2.543l1.658.957-1.074 1.86-1.653-.954a6.98 6.98 0 0 0 .048 5.12l1.736-1.002.812 1.407-1.766 1.02a6.97 6.97 0 0 0 4.702 2.86v-2.185h1.624v2.225a6.97 6.97 0 0 0 4.938-2.764l-2.002-1.156.812-1.407 2.005 1.158a6.98 6.98 0 0 0 .051-5.433l-1.924 1.112-1.075-1.861 1.884-1.089a6.97 6.97 0 0 0-4.689-2.45" clip-path="url(#clipPath29)" style="fill:none;stroke:#000;stroke-width:.793751;stroke-linecap:round;stroke-linejoin:round;stroke-miterlimit:4.7;paint-order:markers fill stroke" transform="translate(47.408)"/><path id="path52" d="M129.771 132.157c0 8.028-6.508 14.537-14.537 14.537s-14.537-6.509-14.537-14.537 6.509-14.537 14.537-14.537 14.537 6.508 14.537 14.537m-1.595 0c0 7.147-5.795 12.941-12.942 12.941s-12.941-5.794-12.941-12.941 5.794-12.942 12.941-12.942 12.942 5.794 12.942 12.942m-1.596 0c0 6.266-5.08 11.346-11.346 11.346s-11.346-5.08-11.346-11.346c0-6.267 5.08-11.346 11.346-11.346s11.346 5.08 11.346 11.346m-1.595 0c0 5.385-4.366 9.75-9.75 9.75-5.386 0-9.752-4.365-9.752-9.75 0-5.386 4.366-9.751 9.751-9.751s9.75 4.365 9.75 9.75m-9.105-6.946v2.071h-1.625v-2.031a6.97 6.97 0 0 0-4.462 2.543l1.657.957-1.074 1.86-1.653-.954a6.98 6.98 0 0 0 .049 5.12l1.735-1.002.812 1.407-1.766 1.02a6.97 6.97 0 0 0 4.702 2.86v-2.185h1.625v2.225a6.97 6.97 0 0 0 4.937-2.764l-2.002-1.156.813-1.407 2.004 1.158a6.98 6.98 0 0 0 .051-5.433l-1.924 1.112-1.075-1.861 1.884-1.089a6.97 6.97 0 0 0-4.688-2.45m-30.326 6.946c0 9.79-7.937 17.727-17.728 17.727s-17.728-7.937-17.728-17.727c0-9.791 7.937-17.728 17.728-17.728 9.79 0 17.728 7.937 17.728 17.728m-1.596 0c0 8.91-7.222 16.132-16.132 16.132s-16.133-7.223-16.133-16.132 7.223-16.133 16.133-16.133 16.132 7.223 16.132 16.133m-1.595 0c0 8.028-6.509 14.537-14.537 14.537s-14.537-6.509-14.537-14.537 6.508-14.537 14.537-14.537 14.537 6.508 14.537 14.537m-1.596 0c0 7.147-5.794 12.941-12.941 12.941s-12.942-5.794-12.942-12.941 5.794-12.942 12.942-12.942c7.147 0 12.941 5.794 12.941 12.942m-1.595 0c0 6.266-5.08 11.346-11.346 11.346s-11.346-5.08-11.346-11.346c0-6.267 5.08-11.346 11.346-11.346s11.346 5.08 11.346 11.346m-1.596 0c0 5.385-4.365 9.75-9.75 9.75s-9.75-4.365-9.75-9.75c0-5.386 4.365-9.751 9.75-9.751s9.75 4.365 9.75 9.75m-9.105-6.946v2.071h-1.624v-2.031a6.97 6.97 0 0 0-4.463 2.543l1.658.957-1.074 1.86-1.653-.954a6.98 6.98 0 0 0 .048 5.12l1.736-1.002.812 1.407-1.766 1.02a6.97 6.97 0 0 0 4.702 2.86v-2.185h1.624v2.225a6.97 6.97 0 0 0 4.938-2.764l-2.002-1.156.812-1.407 2.005 1.158a6.98 6.98 0 0 0 .051-5.433l-1.924 1.112-1.075-1.861 1.884-1.089a6.97 6.97 0 0 0-4.689-2.45" clip-path="url(#clipPath29)" style="fill:none;stroke:#000;stroke-width:.793751;stroke-linecap:round;stroke-linejoin:round;stroke-miterlimit:4.7;paint-order:markers fill stroke" transform="translate(47.408)"/></g><path id="path53" d="M115.234 122.406a9.73 9.73 0 0 0-9.75 9.75 9.73 9.73 0 0 0 9.75 9.75h47.409a9.73 9.73 0 0 0 9.75-9.75 9.73 9.73 0 0 0-9.75-9.75z" style="fill:none;fill-opacity:1;stroke:#000;stroke-width:.79375;stroke-linecap:round;stroke-linejoin:round;stroke-miterlimit:4.7;stroke-dasharray:none;paint-order:markers fill stroke" transform="translate(218.807 -161.826)"/><path id="path54" d="M115.234 120.557c-6.394 0-11.6 5.205-11.6 11.6 0 6.393 5.206 11.599 11.6 11.599h47.409c6.394 0 11.6-5.206 11.6-11.6s-5.206-11.6-11.6-11.6z" style="fill:none;fill-opacity:1;stroke:#000;stroke-width:.79375;stroke-linecap:round;stroke-linejoin:round;stroke-miterlimit:4.7;stroke-dasharray:none;paint-order:markers fill stroke" transform="translate(218.807 -161.826)"/><rect id="rect82" width="105.04" height="65.352" x="-123.19" y="-94.852" ry="5.242" style="fill:#666;fill-opacity:.801075;stroke:#000;stroke-width:.793748;stroke-linecap:round;stroke-linejoin:round;stroke-miterlimit:4.7;stroke-dasharray:none;paint-order:markers fill stroke"/><path id="path83" d="M99.816 112.594h80.942l6.595 6.596v36.71H93.221v-36.71z" style="fill:#e6e6e6;fill-opacity:.729391;stroke:#000;stroke-width:.802763;stroke-linecap:round;stroke-linejoin:round;stroke-miterlimit:4.7;paint-order:markers fill stroke" transform="matrix(1 0 0 .97767 -211.058 -198.912)"/><circle id="circle83" cx="-118.632" cy="-90.424" r="1.256" style="fill:#666667;fill-opacity:.729391;stroke:#000;stroke-width:.79375;stroke-linecap:round;stroke-linejoin:round;stroke-miterlimit:4.7;stroke-dasharray:none;paint-order:markers fill stroke"/><use xlink:href="#path1" id="use83" x="0" y="0" style="fill:#666667;fill-opacity:.729391" transform="matrix(.62838 0 0 .62779 -64.601 -149.877)"/><circle id="circle84" cx="-118.632" cy="-34.177" r="1.256" style="fill:#666667;fill-opacity:.729391;stroke:#000;stroke-width:.79375;stroke-linecap:round;stroke-linejoin:round;stroke-miterlimit:4.7;stroke-dasharray:none;paint-order:markers fill stroke"/><use xlink:href="#path1" id="use84" x="0" y="0" style="fill:#666667;fill-opacity:.729391" transform="matrix(.62838 0 0 .62779 -64.601 -93.63)"/><g id="g89" style="stroke-width:1.03269" transform="matrix(1 0 0 .9377 -211.285 -193.351)"><path id="path84" d="M111.573 159.925h58.145a7.505 7.505 36.804 0 1 7.2 5.387l2.757 9.371a4.202 4.202 126.804 0 1-4.031 5.388h-69.997a4.202 4.202 53.196 0 1-4.03-5.388l2.756-9.37a7.505 7.505 143.196 0 1 7.2-5.388" style="fill:#ccc;fill-opacity:1;stroke:#000;stroke-width:.820689;stroke-linecap:round;stroke-linejoin:round;stroke-miterlimit:4.7;paint-order:markers fill stroke" transform="matrix(1.0576 0 0 .94326 -8.358 9.162)"/><g id="g88" style="stroke-width:1.03269"><circle id="circle85" cx="106.359" cy="172.084" r="2.223" style="fill:#666667;fill-opacity:.729391;stroke:#000;stroke-width:.819697;stroke-linecap:round;stroke-linejoin:round;stroke-miterlimit:4.7;stroke-dasharray:none;paint-order:markers fill stroke"/><circle id="circle86" cx="111.194" cy="167.41" r="1.579" style="fill:#666667;fill-opacity:.729391;stroke:#000;stroke-width:.819694;stroke-linecap:round;stroke-linejoin:round;stroke-miterlimit:4.7;stroke-dasharray:none;paint-order:markers fill stroke"/><circle id="circle87" cx="-174.173" cy="172.084" r="2.223" style="fill:#666667;fill-opacity:.729391;stroke:#000;stroke-width:.819697;stroke-linecap:round;stroke-linejoin:round;stroke-miterlimit:4.7;stroke-dasharray:none;paint-order:markers fill stroke" transform="scale(-1 1)"/><circle id="circle88" cx="-169.338" cy="167.41" r="1.579" style="fill:#666667;fill-opacity:.729391;stroke:#000;stroke-width:.819694;stroke-linecap:round;stroke-linejoin:round;stroke-miterlimit:4.7;stroke-dasharray:none;paint-order:markers fill stroke" transform="scale(-1 1)"/></g></g><path id="path89" d="M115.234 120.557c-6.394 0-11.6 5.205-11.6 11.6 0 6.393 5.206 11.599 11.6 11.599h47.409c6.394 0 11.6-5.206 11.6-11.6s-5.206-11.6-11.6-11.6z" style="fill:none;fill-opacity:1;stroke:#000;stroke-width:.781793;stroke-linecap:round;stroke-linejoin:round;stroke-miterlimit:4.7;stroke-dasharray:none;paint-order:markers fill stroke" transform="translate(-211.834 -196.985)scale(1.0153)"/><path id="path90" d="M-98.116-79.286h54.193" style="fill:none;fill-opacity:1;stroke:#000;stroke-width:.79375;stroke-linecap:round;stroke-linejoin:round;stroke-miterlimit:4.7;stroke-dasharray:none;paint-order:markers fill stroke"/><path id="path91" d="M-98.116-83.52h54.193" style="fill:none;fill-opacity:1;stroke:#000;stroke-width:.79375;stroke-linecap:round;stroke-linejoin:round;stroke-miterlimit:4.7;stroke-dasharray:none;paint-order:markers fill stroke"/><path id="path92" d="M115.234 120.557c-6.394 0-11.6 5.205-11.6 11.6 0 6.393 5.206 11.599 11.6 11.599h47.409c6.394 0 11.6-5.206 11.6-11.6s-5.206-11.6-11.6-11.6z" style="fill:#818182;fill-opacity:1;stroke:#000;stroke-width:.781793;stroke-linecap:round;stroke-linejoin:round;stroke-miterlimit:4.7;stroke-dasharray:none;paint-order:markers fill stroke" transform="translate(-211.834 -196.985)scale(1.0153)"/><path id="path93" d="M-52.572-52.909h5.761c-5.405-.072-9.765-4.476-9.765-9.898 0-5.443 4.392-9.86 9.825-9.9h-5.82a11.51 11.51 0 0 0-5.625 9.9c0 4.207 2.256 7.888 5.624 9.898" style="fill:#b7c4c8;fill-opacity:1;stroke:#000;stroke-width:.781793;stroke-linecap:round;stroke-linejoin:round;stroke-miterlimit:4.7;paint-order:markers fill stroke"/><path id="path94" d="M-55.317-52.909h2.745a11.51 11.51 0 0 1-5.624-9.898c0-4.208 2.256-7.89 5.625-9.9h-2.745a13.1 13.1 0 0 0-4.5 9.9c0 3.948 1.742 7.49 4.499 9.898" style="fill:#b7c4c8;fill-opacity:1;stroke:#000;stroke-width:.781793;stroke-linecap:round;stroke-linejoin:round;stroke-miterlimit:4.7;paint-order:markers fill stroke"/><path id="path95" d="M-57.624-52.909h2.307a13.1 13.1 0 0 1-4.499-9.898 13.1 13.1 0 0 1 4.5-9.9h-2.308a14.7 14.7 0 0 0-3.812 9.9c0 3.808 1.443 7.28 3.812 9.898" style="fill:#b7c4c8;fill-opacity:1;stroke:#000;stroke-width:.781793;stroke-linecap:round;stroke-linejoin:round;stroke-miterlimit:4.7;paint-order:markers fill stroke"/><path id="path96" d="M-79.775-72.707c.046.07.077.148.122.218q.534.836.973 1.732.129.255.25.516c.315.694.599 1.404.826 2.142.018.06.03.124.047.185.203.685.356 1.39.476 2.106q.051.3.092.6c.105.788.178 1.585.178 2.4 0 .816-.073 1.613-.178 2.4q-.04.303-.092.602c-.12.71-.271 1.41-.472 2.09-.02.067-.032.137-.052.204a18 18 0 0 1-.823 2.132q-.123.267-.254.528-.44.892-.97 1.725c-.045.07-.077.149-.123.218h22.15a14.7 14.7 0 0 1-3.81-9.898c0-3.81 1.442-7.282 3.811-9.9z" style="fill:#494949;fill-opacity:.984314;stroke:#000;stroke-width:.781793;stroke-linecap:round;stroke-linejoin:round;stroke-miterlimit:4.7;paint-order:markers fill stroke"/><path id="path97" d="M-79.653-72.489c-.046-.071-.085-.147-.132-.218h-1.975c.052.068.088.147.139.216.454.617.877 1.257 1.243 1.936q.34.635.626 1.3c.051.12.093.245.142.367q.203.502.374 1.02c.054.167.101.336.15.505a16 16 0 0 1 .516 2.52c.02.164.046.327.062.494.047.508.077 1.021.077 1.542 0 .52-.03 1.033-.077 1.541-.016.167-.042.33-.062.495q-.063.517-.157 1.026-.052.267-.112.53-.11.488-.247.963c-.049.169-.096.338-.15.504q-.171.518-.374 1.02c-.049.123-.091.247-.143.367q-.285.666-.625 1.3a16 16 0 0 1-1.242 1.935c-.05.07-.087.149-.14.217h1.975c.047-.07.087-.146.133-.218q.53-.832.97-1.725.13-.262.254-.528c.314-.69.597-1.398.823-2.132.02-.067.032-.137.052-.204.2-.68.353-1.38.472-2.09q.051-.3.092-.602c.105-.787.178-1.584.178-2.4s-.073-1.612-.178-2.4a18 18 0 0 0-.092-.6 18 18 0 0 0-.476-2.106c-.018-.061-.029-.125-.047-.185a18 18 0 0 0-.827-2.142q-.12-.26-.249-.516a18 18 0 0 0-.973-1.732" style="fill:#b7c4c8;stroke:#000;stroke-width:.781793;stroke-linecap:round;stroke-linejoin:round;stroke-miterlimit:4.7;paint-order:markers fill stroke"/><path id="path98" d="m-81.621-72.491-.161-.216h-2.08c.08.089.15.186.228.276a15 15 0 0 1 1.597 2.251c.102.177.205.354.3.536.12.23.23.464.338.7.086.187.173.371.251.562.1.243.185.493.272.743.067.193.138.382.197.578.082.272.147.55.213.828.043.18.093.356.129.538.064.32.106.648.149.976.02.15.049.296.063.447q.074.723.075 1.465-.001.741-.075 1.464c-.014.152-.044.299-.063.45-.043.326-.086.653-.149.972-.037.185-.088.365-.131.547-.066.275-.13.55-.21.82-.06.194-.13.384-.197.575-.087.252-.174.504-.274.75-.077.187-.163.369-.247.552q-.162.358-.34.706-.145.272-.3.536-.192.333-.4.655-.168.257-.347.508a15 15 0 0 1-.849 1.085c-.078.091-.15.19-.23.278h2.08l.162-.217c.453-.616.877-1.257 1.242-1.935q.34-.633.625-1.3c.052-.12.094-.245.143-.366q.203-.503.374-1.02c.054-.167.101-.336.15-.505a16 16 0 0 0 .516-2.52c.02-.164.046-.327.062-.494a17 17 0 0 0 .077-1.541c0-.52-.03-1.034-.077-1.542-.016-.167-.042-.33-.062-.495a16 16 0 0 0-.157-1.026 16 16 0 0 0-.36-1.493c-.048-.169-.095-.338-.15-.504a16 16 0 0 0-.373-1.021c-.049-.122-.09-.246-.142-.366q-.285-.667-.626-1.3a16 16 0 0 0-1.243-1.937" style="fill:#b7c4c8;stroke:#000;stroke-width:.781793;stroke-linecap:round;stroke-linejoin:round;stroke-miterlimit:4.7;paint-order:markers fill stroke"/><path id="path99" d="M-86.187-52.909q.15-.132.295-.268.282-.259.55-.533.193-.204.377-.416.253-.284.488-.583a13 13 0 0 0 .762-1.08q.157-.246.303-.499.185-.326.353-.665c.086-.173.173-.345.251-.522.106-.239.2-.484.292-.73.065-.173.134-.345.192-.521.084-.26.153-.526.222-.792.045-.175.097-.348.135-.526.063-.294.106-.596.149-.898.022-.154.054-.305.07-.461q.077-.693.078-1.404-.002-.712-.077-1.405c-.017-.156-.05-.307-.071-.461a13 13 0 0 0-.15-.898c-.038-.18-.09-.354-.135-.53a13 13 0 0 0-.22-.784c-.06-.18-.129-.355-.195-.53a13 13 0 0 0-.291-.727q-.119-.26-.247-.514c-.114-.227-.23-.452-.357-.672a13 13 0 0 0-.716-1.112 13 13 0 0 0-.351-.471 13 13 0 0 0-.482-.575 13 13 0 0 0-.383-.422 14 14 0 0 0-.547-.53q-.146-.136-.296-.269h-2.727c.067.04.127.092.194.133q.416.261.807.554c.099.074.2.145.295.222.342.273.672.562.98.873.043.044.081.092.124.136q.395.412.749.86.124.161.244.327.287.392.54.809.104.163.2.329c.218.384.42.78.593 1.19l.04.108q.23.569.4 1.166c.039.132.07.266.104.4q.12.483.199.98c.021.138.046.274.063.413.055.46.093.925.093 1.4s-.038.94-.093 1.399c-.017.139-.042.275-.063.412q-.079.5-.2.981c-.033.134-.064.268-.102.4-.116.4-.248.793-.405 1.174-.013.032-.022.066-.036.099-.173.41-.374.804-.591 1.19-.064.113-.135.221-.203.332q-.252.415-.538.805-.118.166-.246.329a12 12 0 0 1-.746.858c-.043.045-.082.094-.125.138-.308.31-.637.598-.978.871-.098.079-.2.15-.301.226q-.389.291-.802.55c-.067.042-.127.094-.195.134z" style="fill:#b7c4c8;stroke:#000;stroke-width:.781793;stroke-linecap:round;stroke-linejoin:round;stroke-miterlimit:4.7;paint-order:markers fill stroke"/><path id="path100" d="M-83.885-52.909q.128-.137.253-.278a15 15 0 0 0 1.197-1.593q.208-.322.398-.655.156-.264.3-.536c.122-.23.232-.468.341-.706.084-.183.17-.365.247-.552.1-.246.187-.498.274-.75.067-.191.138-.38.196-.576.081-.269.145-.544.21-.819.044-.182.095-.362.132-.547.063-.32.106-.646.149-.973.02-.15.048-.297.063-.449q.074-.723.075-1.464-.002-.742-.075-1.465c-.014-.151-.044-.297-.063-.447a15 15 0 0 0-.149-.976c-.036-.182-.087-.358-.13-.538-.065-.278-.13-.557-.212-.828-.059-.196-.13-.386-.197-.578-.087-.25-.172-.5-.272-.743-.078-.19-.166-.376-.251-.562a15 15 0 0 0-.337-.7c-.096-.182-.199-.359-.301-.536q-.19-.332-.397-.653a15 15 0 0 0-.354-.516 15 15 0 0 0-.846-1.082c-.081-.094-.168-.184-.251-.276h-2.285c.097.085.183.182.278.27q.28.256.547.529.195.207.383.422.249.28.482.575a13 13 0 0 1 .762 1.08q.159.248.305.503.188.33.357.672.13.254.247.514c.106.237.2.481.291.726.066.177.136.35.195.53.083.258.151.52.22.784.045.177.097.351.136.53.063.295.106.597.149.899.022.154.054.305.07.461q.077.693.078 1.405-.002.711-.077 1.404c-.017.156-.05.307-.071.461-.043.302-.086.604-.15.898-.038.178-.089.35-.134.526-.07.266-.138.532-.222.792-.058.177-.127.348-.192.522-.092.245-.185.49-.292.729-.078.177-.165.349-.251.522q-.168.338-.353.665-.146.254-.303.498a13 13 0 0 1-2.177 2.613c-.094.087-.18.184-.277.268z" style="fill:#b7c4c8;stroke:#000;stroke-width:.781793;stroke-linecap:round;stroke-linejoin:round;stroke-miterlimit:4.7;paint-order:markers fill stroke"/><path id="path101" d="M-88.94-52.909a11 11 0 0 0 1.023-.684c.1-.076.203-.147.3-.226q.514-.408.979-.871c.043-.044.082-.093.125-.138q.393-.41.746-.858.126-.162.246-.329.285-.39.538-.805c.068-.11.139-.22.203-.333.217-.384.418-.78.591-1.19.014-.032.023-.066.036-.098q.234-.573.405-1.175.055-.197.103-.399.12-.483.199-.98c.021-.138.046-.274.063-.413.055-.46.093-.925.093-1.4s-.038-.94-.093-1.399c-.017-.139-.042-.275-.063-.413a12 12 0 0 0-.2-.98c-.033-.133-.064-.268-.102-.4a11 11 0 0 0-.402-1.166l-.04-.108c-.172-.41-.374-.806-.591-1.19-.063-.112-.133-.22-.2-.329q-.255-.417-.541-.81-.119-.165-.244-.325a12 12 0 0 0-.749-.86c-.043-.045-.08-.094-.124-.137-.308-.31-.638-.6-.98-.873-.096-.077-.196-.148-.295-.222a12 12 0 0 0-1.027-.687h-5.794c.168.001.33.019.497.028.158.01.318.011.475.028.182.019.359.054.538.083.146.023.294.039.437.069.183.038.36.09.538.138.136.037.275.066.41.108.166.052.325.118.488.179.14.052.282.098.42.156.159.068.311.15.466.225.132.065.266.123.394.193.157.085.306.183.458.277.118.073.24.14.355.218.147.1.284.211.425.319.112.084.228.163.335.252.133.11.256.23.382.347.106.097.217.19.318.292.121.121.231.252.346.38.097.107.199.21.291.322.115.14.218.29.326.435.08.109.166.213.241.325.123.182.232.373.342.564.049.084.104.163.15.248.097.178.18.365.265.55.05.107.107.21.153.318a9.9 9.9 0 0 1 .725 4.85c-.013.12-.038.236-.054.355-.03.211-.055.424-.097.631-.016.082-.042.159-.06.24-.055.236-.11.473-.182.703-.034.111-.08.216-.118.325-.068.196-.133.393-.212.582-.046.108-.102.21-.151.317-.086.184-.168.37-.264.547-.061.112-.133.218-.198.328-.096.162-.188.327-.292.483-.08.118-.17.23-.256.344-.103.14-.202.284-.312.418-.09.11-.191.212-.287.32-.114.126-.224.257-.344.378-.107.108-.223.206-.334.308-.122.112-.24.227-.366.333-.107.088-.221.167-.332.25-.141.109-.28.22-.428.321-.118.081-.244.151-.366.227-.146.09-.289.184-.44.267-.133.073-.273.135-.41.202-.15.074-.298.152-.453.218-.136.059-.279.106-.418.159-.16.06-.318.124-.482.176-.155.05-.315.085-.472.127-.156.04-.31.087-.468.12-.162.035-.329.055-.494.081-.161.026-.32.057-.485.074-.163.018-.33.022-.496.032-.148.009-.294.026-.444.028z" style="fill:#b7c4c8;stroke:#000;stroke-width:.781793;stroke-linecap:round;stroke-linejoin:round;stroke-miterlimit:4.7;paint-order:markers fill stroke"/><path id="path102" d="M-46.81-52.909h.134q.98-.002 1.907-.182c4.32-.843 7.636-4.497 7.965-8.98a10 10 0 0 0 .005-1.406 9.9 9.9 0 0 0-9.877-9.23h-.075c-5.433.04-9.825 4.457-9.825 9.9 0 5.422 4.36 9.826 9.765 9.898m.789-16.95a7.08 7.08 0 0 1 4.76 2.489l-1.913 1.105 1.091 1.889 1.954-1.128a7.08 7.08 0 0 1-.052 5.516l-2.035-1.176-.825 1.428 2.033 1.174a7.08 7.08 0 0 1-5.013 2.806v-2.259h-1.65v2.22a7.08 7.08 0 0 1-4.774-2.906l1.794-1.035-.825-1.428-1.762 1.018a7.08 7.08 0 0 1-.05-5.2l1.68.97 1.09-1.889-1.683-.972a7.08 7.08 0 0 1 4.53-2.582v2.063h1.65z" style="fill:#b7c4c8;stroke:#000;stroke-width:.781793;stroke-linecap:round;stroke-linejoin:round;stroke-miterlimit:4.7;paint-order:markers fill stroke"/><path id="path103" d="M-94.789-52.909c.188 0 .372-.017.558-.028.166-.01.333-.014.496-.032.164-.017.324-.048.485-.073.165-.027.332-.047.494-.082.159-.033.312-.08.468-.12.157-.041.317-.078.472-.127.164-.052.322-.116.482-.176.14-.053.282-.1.418-.158.155-.067.303-.145.454-.219.136-.067.276-.129.41-.202.15-.082.293-.176.44-.267.121-.075.247-.146.365-.227.148-.1.287-.212.428-.32.11-.084.225-.163.332-.251.127-.106.244-.221.366-.333.111-.102.227-.2.334-.307.12-.122.23-.253.344-.38.096-.106.196-.208.287-.32.11-.133.21-.277.312-.417.085-.115.176-.226.256-.344.104-.156.196-.32.292-.482.065-.11.137-.216.198-.33.096-.177.178-.362.264-.546.049-.106.105-.209.15-.317.08-.19.145-.386.213-.582.038-.108.084-.214.118-.325.072-.23.126-.466.181-.703.019-.08.045-.158.061-.24.042-.207.068-.42.097-.631.061-.446.104-.897.104-1.36q0-.51-.051-1.01c-.007-.069-.023-.136-.031-.205a10 10 0 0 0-.119-.778c-.01-.052-.028-.1-.04-.152a10 10 0 0 0-.203-.795c-.03-.096-.07-.187-.103-.281-.072-.21-.142-.42-.228-.623-.046-.11-.103-.212-.153-.32-.086-.184-.168-.37-.265-.549-.046-.085-.101-.164-.15-.248-.11-.19-.22-.382-.342-.564-.076-.112-.162-.216-.241-.325-.108-.146-.211-.295-.326-.435-.092-.112-.194-.215-.291-.323-.115-.127-.225-.258-.346-.379-.101-.102-.212-.194-.318-.292-.127-.116-.25-.237-.382-.347-.107-.089-.223-.168-.335-.252-.14-.108-.279-.219-.426-.319-.114-.077-.236-.145-.355-.218-.151-.094-.3-.192-.457-.277-.128-.07-.262-.128-.394-.192-.155-.076-.307-.158-.467-.226-.137-.058-.28-.104-.42-.156-.162-.06-.322-.126-.488-.179-.134-.042-.273-.071-.41-.108-.178-.047-.354-.1-.537-.138-.144-.03-.292-.046-.437-.07-.18-.028-.356-.063-.538-.082-.157-.016-.317-.018-.476-.027-.19-.011-.378-.029-.57-.029q-.492.001-.97.049c-.11.01-.216.03-.324.045a10 10 0 0 0-.623.095c-.12.024-.237.056-.356.084a10 10 0 0 0-.562.144c-.122.036-.242.08-.362.12-.173.06-.345.12-.514.189q-.183.076-.362.157a10 10 0 0 0-.83.423 10 10 0 0 0-1.19.802q-.159.12-.31.248a10 10 0 0 0-.394.358q-.138.127-.271.26a10 10 0 0 0-.39.428c-.072.083-.149.163-.219.25a10 10 0 0 0-.398.532c-.049.068-.102.133-.148.203q-.256.38-.477.785c-.023.04-.04.084-.062.126-.12.23-.236.463-.339.703-.041.096-.074.196-.112.293q-.115.285-.211.578c-.037.115-.067.233-.1.35a10 10 0 0 0-.143.557q-.04.193-.073.39a10 10 0 0 0-.16 1.731c0 .075.01.148.01.223.007.248.014.496.038.74.01.11.03.22.045.33.027.207.055.416.095.62.024.12.056.239.084.359.044.186.088.373.143.555.036.123.08.244.12.365q.088.259.188.512.075.18.155.358a10 10 0 0 0 .42.828q.13.226.27.444.108.17.222.334.154.218.32.427.111.147.23.29.182.211.375.412.121.133.248.261c.142.14.292.271.443.402.078.068.152.14.232.206a10 10 0 0 0 .727.543q.379.255.783.476c.084.046.172.084.257.128.189.096.379.192.575.277.106.045.216.084.325.126q.263.106.534.196.19.059.383.111.26.075.525.135.196.042.395.077l.008.002q.224.038.453.068c.425.055.855.094 1.296.094zm.635-16.95a7.08 7.08 0 0 1 4.76 2.489l-1.913 1.105 1.091 1.889 1.954-1.128a7.08 7.08 0 0 1-.052 5.516l-2.035-1.176-.825 1.428 2.032 1.174a7.08 7.08 0 0 1-5.012 2.806v-2.259h-1.65v2.22a7.08 7.08 0 0 1-4.774-2.906l1.794-1.035-.825-1.428-1.762 1.018a7.08 7.08 0 0 1-.05-5.2l1.679.97 1.09-1.889-1.682-.972a7.08 7.08 0 0 1 4.53-2.582v2.063h1.65z" style="fill:#b7c4c8;stroke:#000;stroke-width:.781793;stroke-linecap:round;stroke-linejoin:round;stroke-miterlimit:4.7;paint-order:markers fill stroke"/><path id="path104" d="M-46.021-69.86v2.104h-1.65v-2.063a7.08 7.08 0 0 0-4.53 2.582l1.683.972-1.09 1.889-1.68-.97a7.08 7.08 0 0 0 .05 5.2l1.762-1.018.825 1.428-1.794 1.035a7.08 7.08 0 0 0 4.775 2.905v-2.219h1.649v2.26a7.08 7.08 0 0 0 5.013-2.807l-2.033-1.174.825-1.428 2.035 1.176a7.08 7.08 0 0 0 .052-5.516l-1.954 1.128-1.09-1.889 1.912-1.105a7.08 7.08 0 0 0-4.76-2.49" style="fill:#1a1a1a;fill-opacity:.713262;stroke:#000;stroke-width:.781793;stroke-linecap:round;stroke-linejoin:round;stroke-miterlimit:4.7;paint-order:markers fill stroke"/><path id="path105" d="M-94.154-69.86v2.104h-1.65v-2.063a7.08 7.08 0 0 0-4.53 2.582l1.683.972-1.091 1.889-1.678-.97a7.08 7.08 0 0 0 .049 5.2l1.762-1.018.825 1.428-1.794 1.035a7.08 7.08 0 0 0 4.775 2.905v-2.219h1.649v2.26a7.08 7.08 0 0 0 5.012-2.807l-2.032-1.174.825-1.428 2.035 1.176a7.08 7.08 0 0 0 .052-5.516l-1.954 1.128-1.091-1.889 1.913-1.105a7.08 7.08 0 0 0-4.76-2.49" style="fill:#1a1a1a;fill-opacity:.713262;stroke:#000;stroke-width:.781793;stroke-linecap:round;stroke-linejoin:round;stroke-miterlimit:4.7;paint-order:markers fill stroke"/><path id="path106" d="M-80.158-72.707h14.289l-7.938 19.798h-14.289z" style="opacity:.3;mix-blend-mode:normal;fill:#fff;stroke-width:.79375;stroke-linecap:round;stroke-linejoin:round;stroke-miterlimit:4.7;paint-order:markers fill stroke;filter:url(#filter81)"/><path id="path107" d="M-62.696-72.707h7.41l-7.937 19.798h-7.41z" style="opacity:.3;fill:#fff;stroke-width:.79375;stroke-linecap:round;stroke-linejoin:round;stroke-miterlimit:4.7;paint-order:markers fill stroke;filter:url(#filter81)"/><path id="path142" d="M167.732-1.379v92.252a263.47 367.922 0 0 0 36.491 186.816l3.984 9.44h43.554l-17.095-24.304a175.715 245.377 0 0 1-50.362-171.952V-1.379Z" style="opacity:1;fill:#5fd;stroke:#000;stroke-width:.88592;stroke-linecap:round;stroke-linejoin:round;stroke-miterlimit:4.7;paint-order:markers fill stroke"/><path id="path141" d="M151.16-1.379v92.252a728.92 1017.898 0 0 0 13.492 196.256h43.555l-3.984-9.44a263.47 367.922 0 0 1-36.49-186.816V-1.379Z" style="opacity:1;fill:#9f5;stroke:#000;stroke-width:.88592;stroke-linecap:round;stroke-linejoin:round;stroke-miterlimit:4.7;paint-order:markers fill stroke"/><path id="path140" d="M134.59-1.379v92.252a728.94 1017.926 0 0 1-13.492 196.256h43.554a728.92 1017.898 0 0 1-13.491-196.256V-1.379Z" style="opacity:1;fill:#df5;stroke:#000;stroke-width:.88592;stroke-linecap:round;stroke-linejoin:round;stroke-miterlimit:4.7;paint-order:markers fill stroke"/><path id="path139" d="M118.018-1.379v92.252a263.472 367.925 0 0 1-36.491 186.816l-3.984 9.44h43.555a728.94 1017.926 0 0 0 13.491-196.256V-1.379Z" style="opacity:1;fill:#f95;stroke:#000;stroke-width:.88592;stroke-linecap:round;stroke-linejoin:round;stroke-miterlimit:4.7;paint-order:markers fill stroke"/><path id="path138" d="M101.446-1.379v92.252a175.715 245.377 0 0 1-50.362 171.952L33.99 287.13h43.554l3.984-9.44a263.472 367.925 0 0 0 36.491-186.816V-1.379Z" style="opacity:1;fill:#f55;stroke:#000;stroke-width:.88592;stroke-linecap:round;stroke-linejoin:round;stroke-miterlimit:4.7;paint-order:markers fill stroke"/><g id="g142" style="stroke-width:1.20756" transform="translate(24.557 24.559)scale(.82812)"><rect id="rect1" width="167.159" height="104.099" x="59.296" y="87.649" ry="8.35" style="fill:#666;fill-opacity:.973118;stroke:#000;stroke-width:.958493;stroke-linecap:round;stroke-linejoin:round;stroke-miterlimit:4.7;stroke-dasharray:none;paint-order:markers fill stroke"/><path id="rect12" d="M99.816 112.594h80.942l6.595 6.596v36.71H93.221v-36.71z" style="fill:#e6e6e6;fill-opacity:.729391;stroke:#000;stroke-width:.608854;stroke-linecap:round;stroke-linejoin:round;stroke-miterlimit:4.7;paint-order:markers fill stroke" transform="matrix(1.59139 0 0 1.55732 -80.537 -78.107)"/><ellipse id="path1" cx="66.549" cy="94.702" rx="1.999" ry="2.001" style="fill:#666667;fill-opacity:.729391;stroke:#000;stroke-width:.958493;stroke-linecap:round;stroke-linejoin:round;stroke-miterlimit:4.7;stroke-dasharray:none;paint-order:markers fill stroke"/><use xlink:href="#path1" id="use4" x="0" y="0" style="fill:#666667;fill-opacity:.729391;stroke-width:.758449" transform="translate(152.532)"/><ellipse id="circle4" cx="66.549" cy="184.297" rx="1.999" ry="2.001" style="fill:#666667;fill-opacity:.729391;stroke:#000;stroke-width:.958493;stroke-linecap:round;stroke-linejoin:round;stroke-miterlimit:4.7;stroke-dasharray:none;paint-order:markers fill stroke"/><use xlink:href="#path1" id="use5" x="0" y="0" style="fill:#666667;fill-opacity:.729391;stroke-width:.758449" transform="translate(152.532 89.595)"/><g id="g15" style="stroke-width:.783243" transform="matrix(1.59139 0 0 1.49364 -80.9 -69.25)"><path id="rect13" d="M111.573 159.925h58.145a7.505 7.505 36.804 0 1 7.2 5.387l2.757 9.371a4.202 4.202 126.804 0 1-4.031 5.388h-69.997a4.202 4.202 53.196 0 1-4.03-5.388l2.756-9.37a7.505 7.505 143.196 0 1 7.2-5.388" style="fill:#ccc;fill-opacity:1;stroke:#000;stroke-width:.62245;stroke-linecap:round;stroke-linejoin:round;stroke-miterlimit:4.7;paint-order:markers fill stroke" transform="matrix(1.0576 0 0 .94326 -8.358 9.162)"/><g id="g14" style="stroke-width:.783243"><circle id="circle9" cx="106.359" cy="172.084" r="2.223" style="fill:#666667;fill-opacity:.729391;stroke:#000;stroke-width:.621699;stroke-linecap:round;stroke-linejoin:round;stroke-miterlimit:4.7;stroke-dasharray:none;paint-order:markers fill stroke"/><circle id="circle10" cx="111.194" cy="167.41" r="1.579" style="fill:#666667;fill-opacity:.729391;stroke:#000;stroke-width:.621696;stroke-linecap:round;stroke-linejoin:round;stroke-miterlimit:4.7;stroke-dasharray:none;paint-order:markers fill stroke"/><circle id="circle11" cx="-174.173" cy="172.084" r="2.223" style="fill:#666667;fill-opacity:.729391;stroke:#000;stroke-width:.621699;stroke-linecap:round;stroke-linejoin:round;stroke-miterlimit:4.7;stroke-dasharray:none;paint-order:markers fill stroke" transform="scale(-1 1)"/><circle id="circle12" cx="-169.338" cy="167.41" r="1.579" style="fill:#666667;fill-opacity:.729391;stroke:#000;stroke-width:.621696;stroke-linecap:round;stroke-linejoin:round;stroke-miterlimit:4.7;stroke-dasharray:none;paint-order:markers fill stroke" transform="scale(-1 1)"/></g></g><path id="path30" d="M115.234 120.557c-6.394 0-11.6 5.205-11.6 11.6 0 6.393 5.206 11.599 11.6 11.599h47.409c6.394 0 11.6-5.206 11.6-11.6s-5.206-11.6-11.6-11.6z" style="fill:none;fill-opacity:1;stroke:#000;stroke-width:.592949;stroke-linecap:round;stroke-linejoin:round;stroke-miterlimit:4.7;stroke-dasharray:none;paint-order:markers fill stroke" transform="matrix(1.61573 0 0 1.61725 -81.772 -75.038)"/><path id="path57" d="M99.197 112.444h86.243" style="fill:none;fill-opacity:1;stroke:#000;stroke-width:.958493;stroke-linecap:round;stroke-linejoin:round;stroke-miterlimit:4.7;stroke-dasharray:none;paint-order:markers fill stroke"/><path id="path58" d="M99.197 105.7h86.243" style="fill:none;fill-opacity:1;stroke:#000;stroke-width:.958493;stroke-linecap:round;stroke-linejoin:round;stroke-miterlimit:4.7;stroke-dasharray:none;paint-order:markers fill stroke"/><path id="path59" d="M115.234 120.557c-6.394 0-11.6 5.205-11.6 11.6 0 6.393 5.206 11.599 11.6 11.599h47.409c6.394 0 11.6-5.206 11.6-11.6s-5.206-11.6-11.6-11.6z" style="fill:#818182;fill-opacity:1;stroke:#000;stroke-width:.592949;stroke-linecap:round;stroke-linejoin:round;stroke-miterlimit:4.7;stroke-dasharray:none;paint-order:markers fill stroke" transform="matrix(1.61573 0 0 1.61725 -81.772 -75.038)"/><path id="path81" d="M171.676 154.46h9.168c-8.603-.115-15.54-7.13-15.54-15.768 0-8.67 6.989-15.705 15.635-15.769h-9.262c-5.36 3.202-8.952 9.066-8.952 15.77 0 6.701 3.59 12.564 8.95 15.766" style="fill:#b7c4c8;fill-opacity:1;stroke:#000;stroke-width:.94406;stroke-linecap:round;stroke-linejoin:round;stroke-miterlimit:4.7;paint-order:markers fill stroke"/><path id="path80" d="M167.307 154.46h4.369c-5.36-3.203-8.95-9.066-8.95-15.768 0-6.703 3.59-12.567 8.951-15.769h-4.369a20.9 20.9 0 0 0-7.16 15.77c0 6.289 2.771 11.93 7.159 15.766" style="fill:#b7c4c8;fill-opacity:1;stroke:#000;stroke-width:.94406;stroke-linecap:round;stroke-linejoin:round;stroke-miterlimit:4.7;paint-order:markers fill stroke"/><path id="path79" d="M163.635 154.46h3.672a20.9 20.9 0 0 1-7.16-15.768 20.9 20.9 0 0 1 7.161-15.769h-3.672a23.44 23.44 0 0 0-6.066 15.77 23.44 23.44 0 0 0 6.065 15.766" style="fill:#b7c4c8;fill-opacity:1;stroke:#000;stroke-width:.94406;stroke-linecap:round;stroke-linejoin:round;stroke-miterlimit:4.7;paint-order:markers fill stroke"/><path id="path78" d="M128.384 122.923c.073.11.124.236.195.347.568.887 1.08 1.809 1.549 2.759.135.273.27.544.396.822a28 28 0 0 1 1.315 3.412c.03.096.047.197.076.294.322 1.091.565 2.214.757 3.355q.082.476.147.957c.167 1.254.283 2.524.283 3.823 0 1.3-.116 2.568-.283 3.822q-.065.482-.147.958a29 29 0 0 1-.75 3.33c-.032.107-.052.218-.084.325a28.4 28.4 0 0 1-1.714 4.237 29 29 0 0 1-1.544 2.748c-.071.112-.122.237-.195.347h35.25a23.44 23.44 0 0 1-6.065-15.767 23.44 23.44 0 0 1 6.066-15.769z" style="fill:#494949;fill-opacity:.984314;stroke:#000;stroke-width:.94406;stroke-linecap:round;stroke-linejoin:round;stroke-miterlimit:4.7;paint-order:markers fill stroke"/><path id="path77" d="M128.58 123.27c-.074-.114-.137-.234-.211-.347h-3.142c.082.108.14.234.22.343a26 26 0 0 1 1.978 3.085q.543 1.012.996 2.071c.082.192.15.39.227.584.214.535.415 1.075.594 1.626.086.265.162.534.24.803q.219.758.393 1.533.096.42.178.846a26 26 0 0 1 .25 1.634c.032.263.073.523.098.788.076.81.123 1.627.123 2.456 0 .83-.047 1.646-.123 2.456-.025.265-.066.524-.099.787-.068.55-.147 1.096-.249 1.634q-.082.426-.178.846a26 26 0 0 1-.393 1.533c-.078.27-.154.538-.24.804-.179.55-.38 1.09-.594 1.625-.078.194-.145.392-.227.584a26 26 0 0 1-.995 2.07 26 26 0 0 1-1.977 3.083c-.081.11-.139.237-.222.345h3.143c.074-.112.137-.233.21-.347a29 29 0 0 0 1.544-2.748c.137-.278.276-.557.404-.84.5-1.1.95-2.228 1.31-3.397.032-.107.052-.218.084-.325a29 29 0 0 0 .75-3.33q.082-.477.147-.958c.167-1.253.283-2.523.283-3.822s-.116-2.57-.283-3.823q-.065-.48-.147-.957a29 29 0 0 0-.757-3.355c-.029-.097-.046-.198-.076-.294a28 28 0 0 0-1.315-3.412 27 27 0 0 0-.396-.822 29 29 0 0 0-1.549-2.759" style="fill:#b7c4c8;stroke:#000;stroke-width:.94406;stroke-linecap:round;stroke-linejoin:round;stroke-miterlimit:4.7;paint-order:markers fill stroke"/><path id="path76" d="M125.447 123.266q-.127-.173-.257-.343h-3.31c.128.141.24.296.364.44a24 24 0 0 1 1.347 1.722q.29.406.563.823c.221.34.428.688.63 1.04.164.283.328.564.48.854.19.365.364.74.537 1.115.136.297.275.591.4.895.158.388.294.786.432 1.184.106.306.22.608.313.92.13.433.234.876.339 1.32.068.286.148.566.206.856.1.511.169 1.033.236 1.555.031.238.078.471.102.711a24 24 0 0 1 .118 2.334c0 .788-.043 1.565-.118 2.333-.024.242-.07.476-.102.715a23 23 0 0 1-.236 1.55c-.059.295-.14.58-.21.871-.104.438-.205.877-.334 1.305-.093.31-.207.612-.313.918-.139.401-.276.802-.436 1.193-.122.299-.259.588-.392.88-.174.38-.35.757-.542 1.125-.152.29-.315.57-.478.853q-.304.531-.634 1.044-.269.41-.554.808a24 24 0 0 1-1.35 1.73c-.126.145-.238.3-.367.442h3.31l.258-.345a26 26 0 0 0 1.977-3.083q.541-1.01.995-2.07c.082-.191.15-.39.227-.584.213-.534.415-1.074.594-1.625.086-.266.162-.535.24-.804q.218-.757.393-1.533.096-.42.178-.846c.102-.538.181-1.084.25-1.634.032-.262.073-.522.098-.787.076-.81.123-1.627.123-2.456 0-.83-.047-1.647-.123-2.456-.025-.265-.066-.525-.099-.788a26 26 0 0 0-.249-1.634 26 26 0 0 0-.178-.846 26 26 0 0 0-.393-1.533c-.078-.269-.154-.538-.24-.803a26 26 0 0 0-.594-1.626c-.078-.193-.145-.392-.227-.584a26 26 0 0 0-.996-2.07 26 26 0 0 0-1.978-3.086" style="fill:#b7c4c8;stroke:#000;stroke-width:.94406;stroke-linecap:round;stroke-linejoin:round;stroke-miterlimit:4.7;paint-order:markers fill stroke"/><path id="path75" d="M118.18 154.46q.239-.21.47-.429c.299-.276.593-.555.874-.847q.308-.326.602-.664.401-.452.777-.928a21 21 0 0 0 1.212-1.722q.25-.39.482-.793c.198-.347.382-.702.561-1.06.137-.275.275-.55.4-.832.17-.38.319-.77.465-1.161.104-.276.213-.55.305-.832.135-.413.244-.837.353-1.26.072-.28.154-.554.215-.838.1-.47.17-.95.238-1.43.035-.246.086-.487.112-.735.078-.736.123-1.48.123-2.237 0-.756-.045-1.502-.123-2.237-.026-.249-.077-.49-.112-.735-.069-.48-.138-.962-.238-1.43-.061-.287-.144-.564-.216-.845-.109-.42-.217-.84-.35-1.248-.094-.287-.205-.565-.31-.846-.146-.39-.295-.778-.464-1.157a20 20 0 0 0-.393-.817q-.269-.545-.567-1.071a21 21 0 0 0-.485-.8 21 21 0 0 0-1.98-2.638 22 22 0 0 0-.61-.672c-.28-.292-.575-.57-.871-.844q-.233-.219-.471-.429h-4.34c.108.064.203.146.31.212q.66.415 1.284.883c.157.118.317.23.47.352.544.436 1.068.897 1.559 1.391.069.07.13.147.197.218q.629.655 1.192 1.37c.134.17.26.345.388.52q.457.624.86 1.289c.107.174.218.345.32.523.345.613.666 1.242.94 1.896.024.056.04.116.064.173.247.603.457 1.223.64 1.856.06.21.11.425.163.639q.191.768.316 1.56c.035.22.074.436.1.658.09.732.149 1.473.149 2.23 0 .755-.06 1.495-.148 2.227-.027.222-.066.439-.1.658q-.126.794-.317 1.562c-.053.213-.104.426-.164.636a18 18 0 0 1-.644 1.87c-.021.052-.036.107-.057.158a18 18 0 0 1-.941 1.895c-.102.18-.215.354-.323.53q-.401.66-.856 1.283c-.129.176-.256.352-.391.523q-.561.713-1.189 1.367c-.068.072-.129.15-.199.22-.49.493-1.012.952-1.555 1.388-.156.125-.32.239-.48.359q-.619.465-1.275.876c-.107.067-.203.15-.311.214z" style="fill:#b7c4c8;stroke:#000;stroke-width:.94406;stroke-linecap:round;stroke-linejoin:round;stroke-miterlimit:4.7;paint-order:markers fill stroke"/><path id="path74" d="M121.845 154.46c.134-.148.272-.292.402-.443q.32-.372.624-.756.375-.477.727-.974.286-.398.554-.808.33-.512.634-1.044c.163-.282.326-.563.478-.853.192-.368.368-.746.542-1.125.133-.292.27-.582.392-.88.16-.39.298-.792.436-1.193.106-.306.22-.607.313-.918.129-.428.23-.867.335-1.305.069-.29.15-.576.209-.87.1-.51.169-1.03.236-1.55.031-.24.078-.475.102-.716.075-.768.118-1.545.118-2.333a24 24 0 0 0-.118-2.334c-.024-.24-.07-.473-.102-.71a24 24 0 0 0-.236-1.556c-.058-.29-.138-.57-.206-.857-.105-.443-.209-.886-.339-1.32-.093-.31-.207-.613-.313-.919-.138-.397-.274-.796-.433-1.184-.124-.303-.264-.598-.4-.895a23 23 0 0 0-.536-1.115c-.152-.29-.316-.571-.48-.854q-.302-.528-.63-1.04-.273-.418-.563-.823a24 24 0 0 0-1.347-1.722c-.13-.15-.267-.293-.4-.44h-3.636c.155.135.292.29.442.429.297.275.59.552.87.844.21.218.41.445.61.672q.396.447.767.915.287.369.559.75.34.477.655.973.251.393.485.8.299.526.567 1.07c.135.271.27.54.393.818.169.379.318.767.464 1.157.105.281.216.559.31.846.133.409.241.828.35 1.248.072.281.155.558.216.844.1.47.17.95.238 1.43.035.247.086.487.112.736.078.735.123 1.48.123 2.237 0 .756-.045 1.501-.123 2.237-.026.248-.077.489-.112.735-.069.48-.138.96-.238 1.43-.06.284-.143.558-.215.837-.11.425-.218.848-.353 1.261-.092.282-.201.555-.305.832-.146.392-.295.781-.464 1.161-.126.282-.263.556-.4.832-.18.359-.364.713-.562 1.06q-.233.403-.482.793a21 21 0 0 1-1.212 1.722q-.376.475-.777.928c-.198.225-.395.448-.602.664a21 21 0 0 1-.873.847c-.15.14-.287.294-.44.428z" style="fill:#b7c4c8;stroke:#000;stroke-width:.94406;stroke-linecap:round;stroke-linejoin:round;stroke-miterlimit:4.7;paint-order:markers fill stroke"/><path id="path73" d="M113.8 154.46a18 18 0 0 0 1.627-1.091c.16-.12.324-.234.48-.36a18 18 0 0 0 1.556-1.388c.069-.07.13-.148.199-.219q.627-.654 1.188-1.367c.135-.171.263-.348.391-.523q.455-.622.856-1.282c.108-.177.22-.35.323-.531a18 18 0 0 0 .94-1.895c.022-.051.037-.106.058-.157.249-.607.46-1.233.644-1.871.06-.21.11-.423.164-.636q.192-.768.316-1.562c.035-.219.074-.436.1-.658.09-.731.149-1.472.149-2.228s-.06-1.497-.148-2.229c-.027-.221-.066-.439-.1-.658a18 18 0 0 0-.317-1.56c-.053-.214-.103-.429-.164-.64a18 18 0 0 0-.639-1.855c-.023-.057-.04-.117-.063-.173a18 18 0 0 0-.942-1.896c-.1-.178-.212-.35-.318-.523q-.404-.665-.861-1.29c-.128-.174-.255-.35-.388-.519a19 19 0 0 0-1.192-1.37c-.068-.071-.128-.148-.197-.218a18 18 0 0 0-1.56-1.39c-.152-.123-.312-.236-.469-.353a18 18 0 0 0-1.634-1.095h-9.221c.267.002.526.03.79.045.252.015.507.018.757.044.29.03.57.086.856.132.231.037.467.062.695.11.29.06.572.144.856.22.217.059.439.105.652.172.264.084.519.189.777.285.222.083.45.156.668.249.254.108.496.238.743.359.209.102.423.195.627.306.25.136.486.293.728.442.188.116.382.223.565.347.233.16.453.337.677.507.177.135.362.26.533.403.21.175.406.367.608.552.168.156.345.303.506.465.193.193.368.402.55.605.154.171.317.335.464.514.183.223.347.46.518.693.127.173.264.339.384.517.195.29.368.595.544.898.078.134.166.26.24.396.153.284.284.581.42.875.08.17.17.334.244.508a15.7 15.7 0 0 1 1.233 6.125q0 .811-.08 1.601c-.02.19-.06.375-.086.564-.046.337-.086.676-.153 1.006-.027.13-.068.253-.098.38a16 16 0 0 1-.287 1.122c-.055.176-.127.344-.188.518-.108.31-.212.625-.339.927-.072.172-.161.334-.24.503-.136.293-.267.589-.42.872-.097.18-.21.348-.314.524-.153.257-.299.52-.466.768-.127.189-.27.365-.406.549-.164.223-.321.451-.497.665-.144.176-.305.338-.457.508-.181.203-.356.412-.548.605-.17.17-.353.326-.53.49-.194.177-.382.361-.584.53-.17.14-.352.266-.527.4-.225.172-.446.35-.68.51-.19.128-.39.24-.584.361-.232.144-.46.294-.7.426-.212.116-.434.215-.652.322-.24.117-.475.242-.721.347-.218.093-.444.168-.666.252-.255.096-.506.199-.768.281-.245.078-.5.136-.75.202-.248.065-.492.139-.745.192-.258.055-.523.087-.786.13-.257.04-.51.089-.771.117-.26.028-.526.035-.79.05-.236.014-.468.042-.707.045z" style="fill:#b7c4c8;stroke:#000;stroke-width:.94406;stroke-linecap:round;stroke-linejoin:round;stroke-miterlimit:4.7;paint-order:markers fill stroke"/><path id="path70" d="M180.844 154.46h.214c1.04 0 2.053-.1 3.035-.291 6.875-1.343 12.151-7.164 12.676-14.305a16 16 0 0 0 .007-2.238c-.513-7.699-6.546-13.885-14.173-14.628a16 16 0 0 0-1.545-.075h-.119c-8.646.064-15.636 7.1-15.636 15.77 0 8.637 6.939 15.652 15.54 15.766zm1.256-27a11.27 11.27 0 0 1 7.576 3.964l-3.044 1.76 1.736 3.009 3.11-1.797a11.3 11.3 0 0 1-.083 8.786l-3.239-1.872-1.312 2.275 3.234 1.87a11.27 11.27 0 0 1-7.978 4.47v-3.599h-2.624v3.535a11.27 11.27 0 0 1-7.598-4.627l2.855-1.65-1.314-2.274-2.803 1.62a11.3 11.3 0 0 1-.08-8.28l2.673 1.543 1.735-3.009-2.679-1.548a11.27 11.27 0 0 1 7.211-4.113v3.286h2.624z" style="fill:#b7c4c8;stroke:#000;stroke-width:.94406;stroke-linecap:round;stroke-linejoin:round;stroke-miterlimit:4.7;paint-order:markers fill stroke"/><path id="path69" d="M104.492 154.46c.3-.001.592-.029.887-.046.264-.016.53-.022.79-.05.261-.028.515-.077.772-.118.263-.041.528-.074.786-.129.253-.053.497-.126.745-.192.25-.066.505-.123.75-.201.261-.083.513-.186.768-.282.222-.083.448-.158.666-.252.246-.105.481-.23.721-.347.218-.107.44-.205.652-.322.24-.132.468-.282.7-.425.194-.12.394-.233.583-.362.235-.16.456-.338.681-.51.175-.134.358-.26.527-.4.202-.168.39-.352.583-.53.178-.163.362-.32.531-.49.192-.193.367-.402.548-.604.152-.17.313-.332.457-.509.176-.214.333-.442.497-.665.135-.183.28-.36.406-.55.167-.247.313-.51.466-.767.104-.175.217-.344.314-.524.153-.283.284-.578.42-.871.078-.17.168-.332.24-.504.127-.302.23-.616.34-.927.06-.174.132-.341.187-.518.113-.366.2-.743.287-1.12.03-.13.071-.253.098-.382.067-.33.107-.67.153-1.006.098-.71.166-1.428.166-2.165q0-.815-.081-1.609c-.011-.11-.036-.217-.05-.327a16 16 0 0 0-.189-1.24c-.016-.082-.044-.16-.062-.241a16 16 0 0 0-.325-1.266c-.047-.153-.112-.298-.164-.45-.115-.333-.226-.669-.362-.992-.074-.174-.165-.337-.244-.508-.136-.294-.267-.591-.42-.875-.075-.136-.163-.262-.24-.396-.176-.303-.35-.608-.545-.898-.12-.178-.256-.344-.384-.517-.17-.232-.335-.47-.518-.693-.147-.178-.31-.342-.463-.514-.182-.203-.358-.411-.55-.604-.162-.163-.338-.31-.506-.465-.202-.186-.397-.378-.608-.553-.171-.142-.356-.268-.533-.402-.225-.171-.444-.349-.678-.507-.182-.124-.377-.231-.565-.348-.241-.15-.478-.305-.727-.442-.204-.111-.418-.204-.627-.306-.247-.121-.49-.25-.744-.359-.217-.093-.445-.165-.667-.248-.259-.097-.513-.202-.777-.285-.214-.067-.435-.114-.652-.172-.284-.076-.565-.16-.856-.22-.228-.048-.464-.074-.696-.111-.284-.046-.566-.101-.856-.132-.249-.026-.504-.03-.756-.043-.303-.018-.602-.046-.909-.046q-.782.002-1.544.078c-.173.016-.342.049-.514.071a16 16 0 0 0-.991.153c-.192.037-.379.088-.568.132-.3.07-.6.142-.893.23-.195.058-.385.127-.577.192-.275.095-.55.191-.818.3q-.29.121-.576.251a16 16 0 0 0-1.32.674 16 16 0 0 0-1.896 1.276c-.165.13-.332.26-.492.396-.215.183-.422.376-.627.57-.144.138-.292.271-.432.414-.214.22-.417.45-.619.681-.116.133-.237.261-.348.398-.223.274-.43.56-.635.849-.077.108-.161.211-.236.322q-.407.607-.759 1.251c-.035.065-.063.135-.097.2-.193.366-.376.739-.54 1.12-.066.154-.118.313-.18.468-.118.304-.235.608-.335.92-.059.183-.105.372-.158.558-.082.293-.162.587-.227.887-.045.205-.08.413-.116.62a16 16 0 0 0-.255 2.758c0 .12.014.236.016.355.01.396.022.79.06 1.179.016.177.049.35.072.525.043.332.087.663.15.988.039.193.09.381.134.572.07.298.14.594.227.885.059.196.127.388.193.581q.138.413.297.815.119.289.248.57a16 16 0 0 0 .668 1.32q.207.36.43.708.17.27.352.53.245.348.509.68c.121.156.24.313.367.463.191.226.393.442.596.657.132.14.259.282.395.416.227.222.466.432.705.64.124.108.242.223.37.327q.552.454 1.145.857l.011.008q.604.407 1.247.759c.133.073.273.134.408.203.302.154.604.307.916.441.169.074.344.135.516.202.281.11.563.218.851.312.2.065.406.12.61.177.276.077.553.152.834.215q.313.067.63.122l.012.003q.358.062.72.11a16 16 0 0 0 2.063.148zm1.01-27a11.26 11.26 0 0 1 7.575 3.964l-3.045 1.76 1.737 3.009 3.11-1.797a11.3 11.3 0 0 1-.083 8.786l-3.239-1.872-1.312 2.275 3.234 1.87a11.27 11.27 0 0 1-7.977 4.47v-3.599h-2.624v3.535a11.27 11.27 0 0 1-7.598-4.627l2.853-1.65-1.312-2.274-2.804 1.62a11.3 11.3 0 0 1-.078-8.28l2.67 1.543 1.737-3.009-2.679-1.548a11.27 11.27 0 0 1 7.21-4.113v3.286h2.625z" style="fill:#b7c4c8;stroke:#000;stroke-width:.94406;stroke-linecap:round;stroke-linejoin:round;stroke-miterlimit:4.7;paint-order:markers fill stroke"/><path id="path68" d="M182.1 127.46v3.349h-2.624v-3.286a11.27 11.27 0 0 0-7.21 4.113l2.678 1.548-1.735 3.009-2.672-1.543a11.3 11.3 0 0 0 .079 8.28l2.803-1.62 1.314 2.275-2.855 1.649a11.27 11.27 0 0 0 7.598 4.627v-3.535h2.624v3.599a11.27 11.27 0 0 0 7.978-4.47l-3.234-1.87 1.312-2.275 3.239 1.872a11.3 11.3 0 0 0 .083-8.786l-3.11 1.797-1.736-3.009 3.044-1.76a11.27 11.27 0 0 0-7.576-3.965" style="fill:#1a1a1a;fill-opacity:.713262;stroke:#000;stroke-width:.94406;stroke-linecap:round;stroke-linejoin:round;stroke-miterlimit:4.7;paint-order:markers fill stroke"/><path id="path67" d="M105.502 127.46v3.349h-2.624v-3.286a11.27 11.27 0 0 0-7.21 4.113l2.678 1.548-1.736 3.009-2.671-1.543a11.3 11.3 0 0 0 .078 8.28l2.804-1.62 1.312 2.275-2.853 1.649a11.27 11.27 0 0 0 7.598 4.627v-3.535h2.624v3.599a11.27 11.27 0 0 0 7.977-4.47l-3.234-1.87 1.312-2.275 3.239 1.872a11.3 11.3 0 0 0 .083-8.786l-3.11 1.797-1.737-3.009 3.045-1.76a11.26 11.26 0 0 0-7.575-3.965" style="fill:#1a1a1a;fill-opacity:.713262;stroke:#000;stroke-width:.94406;stroke-linecap:round;stroke-linejoin:round;stroke-miterlimit:4.7;paint-order:markers fill stroke"/><path id="rect81" d="M138-70.823h14.289l-7.938 19.799h-14.289z" style="opacity:.3;mix-blend-mode:normal;fill:#fff;stroke-width:.602018;stroke-linecap:round;stroke-linejoin:round;stroke-miterlimit:4.7;paint-order:markers fill stroke;filter:url(#filter81)" transform="matrix(1.59139 0 0 1.59289 -91.836 235.736)"/><path id="path82" d="M155.462-70.823h7.41l-7.937 19.799h-7.41z" style="opacity:.3;fill:#fff;stroke-width:.602018;stroke-linecap:round;stroke-linejoin:round;stroke-miterlimit:4.7;paint-order:markers fill stroke;filter:url(#filter81)" transform="matrix(1.59139 0 0 1.59289 -91.836 235.736)"/></g></g></svg>