<svg xmlns="http://www.w3.org/2000/svg" xml:space="preserve" id="svg1" width="1080" height="1080" viewBox="0 0 285.75 285.75"><g id="layer1" style="display:inline;opacity:1;mix-blend-mode:multiply"><text xml:space="preserve" id="text2" x="65.371" y="280.346" style="font-style:normal;font-variant:normal;font-weight:400;font-stretch:normal;font-size:7.05555px;font-family:Winner;-gravit-designer-font-specification:&quot;Winner, Normal&quot;;font-variant-ligatures:normal;font-variant-caps:normal;font-variant-numeric:normal;font-variant-east-asian:normal;text-align:end;letter-spacing:2.11667px;word-spacing:.0132292px;writing-mode:lr-tb;direction:ltr;text-anchor:end;fill:#000;fill-opacity:.973118;stroke:none;stroke-width:.79375;stroke-linecap:round;stroke-linejoin:round;stroke-miterlimit:4.7;paint-order:markers fill stroke"><tspan id="tspan2" x="67.488" y="280.346" style="font-size:7.05555px;stroke-width:.79375">font: winner</tspan></text><g id="g14" transform="translate(-12.036 -17.947)"><path id="path14" d="M110.936 79.965v17.384h13.14v89.011h18.799v-18.261h31.737v56.196h-31.737v-15.647h-18.8v15.647h-13.139v17.384h72.165l10.31-10.309v-65.292l-6.67-6.67 6.67-6.672v-17.7h-18.8v15.679h-31.736V97.349h31.737v15.403h18.798V90.274l-10.309-10.31Z" style="font-size:130.955px;font-family:Winner;-gravit-designer-font-specification:&quot;Winner, Normal&quot;;text-align:end;letter-spacing:3.92867px;word-spacing:.0245542px;text-anchor:end;fill-opacity:.973118;stroke-width:.514216;stroke-linecap:round;stroke-linejoin:round;stroke-miterlimit:4.7;paint-order:markers fill stroke"/><path id="path13" d="M221.11 167.71h18.8v28.177l-10.31 10.31h-33.741q.005-8.693.006-17.385h25.244z" style="font-size:130.955px;font-family:Winner;-gravit-designer-font-specification:&quot;Winner, Normal&quot;;text-align:end;letter-spacing:3.92867px;word-spacing:.0245542px;text-anchor:end;fill-opacity:.973118;stroke-width:.514216;stroke-linecap:round;stroke-linejoin:round;stroke-miterlimit:4.7;paint-order:markers fill stroke"/><path id="path12" d="M145.325 115.2H229.6l10.309 10.31v28.175h-18.8v-21.101h-75.784z" style="font-size:130.955px;font-family:Winner;-gravit-designer-font-specification:&quot;Winner, Normal&quot;;text-align:end;letter-spacing:3.92867px;word-spacing:.0245542px;text-anchor:end;fill-opacity:.973118;stroke-width:.514216;stroke-linecap:round;stroke-linejoin:round;stroke-miterlimit:4.7;paint-order:markers fill stroke"/><path id="path11" d="m80.22 115.2-10.308 10.31v70.377l10.309 10.31h91.94v-17.385H88.71v-56.228h32.915V115.2z" style="font-size:130.955px;font-family:Winner;-gravit-designer-font-specification:&quot;Winner, Normal&quot;;text-align:end;letter-spacing:3.92867px;word-spacing:.0245542px;text-anchor:end;fill-opacity:.973118;stroke-width:.514216;stroke-linecap:round;stroke-linejoin:round;stroke-miterlimit:4.7;paint-order:markers fill stroke"/></g></g></svg>