<svg xmlns="http://www.w3.org/2000/svg" xml:space="preserve" id="svg1" width="1080" height="1080" viewBox="0 0 285.75 285.75"><g id="layer1" style="display:inline;opacity:1;mix-blend-mode:multiply"><g id="g21" transform="translate(0 91.952)"><path id="path7" d="M130.323 8.73h-45.99v27.003h8.755V17.802h9.388v66.242h-8.122v9.07h26.054v-9.07h-8.123V17.802h9.388v17.931h8.65z" style="font-size:105.481px;font-family:Winner;-gravit-designer-font-specification:&quot;Winner, Normal&quot;;text-align:end;letter-spacing:2.11667px;word-spacing:.0132292px;text-anchor:end;fill-opacity:.973118;stroke-width:.79375;stroke-linecap:round;stroke-linejoin:round;stroke-miterlimit:4.7;paint-order:markers fill stroke"/><path id="text7" d="M100.57 17.696V8.73H84.01L71.457 45.543 58.905 8.73h-16.56v8.966H49.2v66.453h-6.856v8.966H66.5v-8.966h-7.806V32.252l12.658 35.864h.105L84.22 32.252V84.15h-7.805v8.966h24.155V84.15h-6.856V17.696Z" style="font-size:105.481px;font-family:Winner;-gravit-designer-font-specification:&quot;Winner, Normal&quot;;text-align:end;letter-spacing:2.11667px;word-spacing:.0132292px;text-anchor:end;fill-opacity:.973118;stroke-width:.79375;stroke-linecap:round;stroke-linejoin:round;stroke-miterlimit:4.7;paint-order:markers fill stroke"/><path id="path8" d="M171.988 17.696V8.73h-16.56l-12.553 36.813L130.323 8.73h-16.56v8.966h6.855v66.453h-6.856v8.966h24.155v-8.966h-7.805V32.252l12.658 35.864h.105l12.763-35.864V84.15h-7.805v8.966h24.155V84.15h-6.857V17.696Z" style="font-size:105.481px;font-family:Winner;-gravit-designer-font-specification:&quot;Winner, Normal&quot;;text-align:end;letter-spacing:2.11667px;word-spacing:.0132292px;text-anchor:end;fill-opacity:.973118;stroke-width:.79375;stroke-linecap:round;stroke-linejoin:round;stroke-miterlimit:4.7;paint-order:markers fill stroke"/><path id="path9" d="M202.347 8.73h-45.99v27.003h8.755V17.802h9.388v66.242h-8.122v9.07h26.053v-9.07h-8.122V17.802h9.388v17.931h8.65z" style="font-size:105.481px;font-family:Winner;-gravit-designer-font-specification:&quot;Winner, Normal&quot;;text-align:end;letter-spacing:2.11667px;word-spacing:.0132292px;text-anchor:end;fill-opacity:.973118;stroke-width:.79375;stroke-linecap:round;stroke-linejoin:round;stroke-miterlimit:4.7;paint-order:markers fill stroke"/><path id="path10" d="M243.405 17.696V8.73h-16.56l-12.552 36.813L201.74 8.73h-16.56v8.966h6.856v66.453h-6.856v8.966h24.155v-8.966h-7.806V32.252l12.658 35.864h.106l12.763-35.864V84.15h-7.806v8.966h24.155V84.15h-6.856V17.696Z" style="font-size:105.481px;font-family:Winner;-gravit-designer-font-specification:&quot;Winner, Normal&quot;;text-align:end;letter-spacing:2.11667px;word-spacing:.0132292px;text-anchor:end;fill-opacity:.973118;stroke-width:.79375;stroke-linecap:round;stroke-linejoin:round;stroke-miterlimit:4.7;paint-order:markers fill stroke"/></g></g></svg>