<svg xmlns="http://www.w3.org/2000/svg" xml:space="preserve" id="svg1" width="1080" height="1080" viewBox="0 0 285.75 285.75"><defs id="defs1"><marker id="Dot" markerHeight=".4" markerWidth=".4" orient="auto" preserveAspectRatio="xMidYMid" refX="0" refY="0" style="overflow:visible" viewBox="0 0 1 1"><path id="path17" d="M5 0c0 2.76-2.24 5-5 5s-5-2.24-5-5 2.3-5 5-5c2.76 0 5 2.24 5 5" style="fill:context-stroke;fill-rule:evenodd;stroke:none" transform="scale(.5)"/></marker></defs><g id="layer1" style="display:inline;opacity:1;mix-blend-mode:multiply"><g id="g22" transform="translate(45.345 112.37)"><g id="g19"><path id="path7" d="M102.229 79.846h12.205a12.93 12.93 45 0 1 12.93 12.93 12.93 12.93 135 0 1-12.93 12.93h-12.205z" style="fill:none;fill-opacity:.973118;stroke:#000;stroke-width:1.32292;stroke-linecap:round;stroke-linejoin:round;stroke-miterlimit:4.7;paint-order:markers fill stroke" transform="translate(-87.997 -63.5)"/><path id="path8" d="M98.921 76.448h15.422a16.33 16.33 45 0 1 16.328 16.328 16.33 16.33 135 0 1-16.328 16.328H98.921Z" style="fill:none;fill-opacity:.973118;stroke:#000;stroke-width:1.32291;stroke-linecap:round;stroke-linejoin:round;stroke-miterlimit:4.7;paint-order:markers fill stroke" transform="translate(-87.997 -63.5)"/><path id="path9" d="M95.614 73.05h18.638a19.726 19.726 45 0 1 19.727 19.726v0a19.726 19.726 135 0 1-19.727 19.726H95.614Z" style="fill:none;fill-opacity:.973118;stroke:#000;stroke-width:1.32291;stroke-linecap:round;stroke-linejoin:round;stroke-miterlimit:4.7;paint-order:markers fill stroke" transform="translate(-87.997 -63.5)"/><path id="path10" d="M95.614 73.05h18.638a19.726 19.726 45 0 1 19.727 19.726v0a19.726 19.726 135 0 1-19.727 19.726H95.614Z" style="fill:none;fill-opacity:.973118;stroke:#000;stroke-width:1.32291;stroke-linecap:round;stroke-linejoin:round;stroke-miterlimit:4.7;paint-order:markers fill stroke" transform="translate(-87.997 -63.5)"/></g><g id="g18" transform="translate(37.41 -79.851)"><path id="path18" d="M149.372 111.873v18.638" style="opacity:1;fill:none;fill-opacity:.973118;stroke:#000;stroke-width:1.32291;stroke-linecap:round;stroke-linejoin:round;stroke-miterlimit:4.7;marker-start:url(#Dot);marker-end:url(#Dot);paint-order:markers fill stroke"/><path id="path16" d="M129.646 92.147c8.03 0 14.94 4.799 18.019 11.686" style="opacity:1;fill:none;fill-opacity:.973118;stroke:#000;stroke-width:1.32291;stroke-linecap:round;stroke-linejoin:round;stroke-miterlimit:4.7;marker-start:url(#Dot);marker-end:url(#Dot);paint-order:markers fill stroke"/><path id="path15" d="M109.92 111.873c0-8.381 5.227-15.542 12.599-18.4" style="opacity:1;fill:none;fill-opacity:.973118;stroke:#000;stroke-width:1.32291;stroke-linecap:round;stroke-linejoin:round;stroke-miterlimit:4.7;marker-start:url(#Dot);marker-end:url(#Dot);paint-order:markers fill stroke"/><path id="path4" d="M109.92 130.511v-13.13" style="opacity:1;fill:none;fill-opacity:.973118;stroke:#000;stroke-width:1.32291;stroke-linecap:round;stroke-linejoin:round;stroke-miterlimit:4.7;marker-start:url(#Dot);marker-end:url(#Dot);paint-order:markers fill stroke"/><path id="path14" d="M116.715 111.709c0-7.159 5.79-12.948 12.93-12.948" style="opacity:1;fill:none;fill-opacity:.973118;stroke:#000;stroke-width:1.32292;stroke-linecap:round;stroke-linejoin:round;stroke-miterlimit:4.7;marker-start:url(#Dot);marker-end:url(#Dot);paint-order:markers fill stroke"/><path id="path33" d="M135.877 100.36a12.94 12.94 0 0 1 6.7 11.349h-18.814" style="opacity:1;fill:none;fill-opacity:.973118;stroke:#000;stroke-width:1.32292;stroke-linecap:round;stroke-linejoin:round;stroke-miterlimit:4.7;marker-start:url(#Dot);marker-end:url(#Dot);paint-order:markers fill stroke"/><path id="path31" d="M142.576 115.033h-25.86" style="opacity:1;fill:none;fill-opacity:.973118;stroke:#000;stroke-width:1.32291;stroke-linecap:round;stroke-linejoin:round;stroke-miterlimit:4.7;paint-order:markers fill stroke"/><path id="path2" d="M113.317 131.423v-19.64c0-9.019 7.31-16.33 16.329-16.33 9.018 0 16.328 7.311 16.328 16.33v19.64" style="opacity:1;fill:none;fill-opacity:.973118;stroke:#000;stroke-width:1.32291;stroke-linecap:round;stroke-linejoin:round;stroke-miterlimit:4.7;paint-order:markers fill stroke"/><path id="path13" d="M136.105 118.34h6.471v12.171" style="opacity:1;fill:none;fill-opacity:.973118;stroke:#000;stroke-width:1.32292;stroke-linecap:round;stroke-linejoin:round;stroke-miterlimit:4.7;stroke-dasharray:none;marker-start:url(#Dot);marker-end:url(#Dot);paint-order:markers fill stroke"/><path id="path1" d="M116.715 126.757v-8.417h14.233" style="opacity:1;fill:none;fill-opacity:.973118;stroke:#000;stroke-width:1.32292;stroke-linecap:round;stroke-linejoin:round;stroke-miterlimit:4.7;stroke-dasharray:none;marker-start:url(#Dot);marker-end:url(#Dot);paint-order:markers fill stroke"/></g><g id="g20" transform="translate(43.255 2.084)"><path id="path36" d="M57.585 49.003V9.55" style="opacity:.5;fill:none;fill-opacity:.973118;stroke:#000;stroke-width:1.32291;stroke-linecap:round;stroke-linejoin:round;stroke-miterlimit:4.7;paint-order:markers fill stroke"/><path id="path37" d="M76.223 49.003H57.585" style="opacity:.5;fill:none;fill-opacity:.973118;stroke:#000;stroke-width:1.32291;stroke-linecap:round;stroke-linejoin:round;stroke-miterlimit:4.7;paint-order:markers fill stroke"/><path id="path38" d="M95.95 29.276c0 10.895-8.832 19.727-19.727 19.727" style="opacity:.5;fill:none;fill-opacity:.973118;stroke:#000;stroke-width:1.32291;stroke-linecap:round;stroke-linejoin:round;stroke-miterlimit:4.7;paint-order:markers fill stroke"/><path id="path40" d="M76.223 9.55c10.895 0 19.727 8.832 19.727 19.726" style="opacity:.5;fill:none;fill-opacity:.973118;stroke:#000;stroke-width:1.32291;stroke-linecap:round;stroke-linejoin:round;stroke-miterlimit:4.7;paint-order:markers fill stroke"/><path id="path41" d="M57.585 9.55h18.638" style="opacity:.5;fill:none;fill-opacity:.973118;stroke:#000;stroke-width:1.32291;stroke-linecap:round;stroke-linejoin:round;stroke-miterlimit:4.7;paint-order:markers fill stroke"/><path id="path42" d="M64.2 42.207V16.346" style="opacity:.5;fill:none;fill-opacity:.973118;stroke:#000;stroke-width:1.32292;stroke-linecap:round;stroke-linejoin:round;stroke-miterlimit:4.7;paint-order:markers fill stroke"/><path id="path43" d="M76.405 42.207H64.2" style="opacity:.5;fill:none;fill-opacity:.973118;stroke:#000;stroke-width:1.32292;stroke-linecap:round;stroke-linejoin:round;stroke-miterlimit:4.7;paint-order:markers fill stroke"/><path id="path44" d="M89.335 29.276c0 7.142-5.789 12.93-12.93 12.93" style="opacity:.5;fill:none;fill-opacity:.973118;stroke:#000;stroke-width:1.32292;stroke-linecap:round;stroke-linejoin:round;stroke-miterlimit:4.7;paint-order:markers fill stroke"/><path id="path45" d="M76.405 16.346c7.141 0 12.93 5.79 12.93 12.93" style="opacity:.5;fill:none;fill-opacity:.973118;stroke:#000;stroke-width:1.32292;stroke-linecap:round;stroke-linejoin:round;stroke-miterlimit:4.7;paint-order:markers fill stroke"/><path id="path46" d="M64.2 16.346h12.205" style="opacity:.5;fill:none;fill-opacity:.973118;stroke:#000;stroke-width:1.32292;stroke-linecap:round;stroke-linejoin:round;stroke-miterlimit:4.7;paint-order:markers fill stroke"/><path id="path47" d="M60.892 45.605V12.948" style="opacity:.5;fill:none;fill-opacity:.973118;stroke:#000;stroke-width:1.32291;stroke-linecap:round;stroke-linejoin:round;stroke-miterlimit:4.7;paint-order:markers fill stroke"/><path id="path48" d="M76.314 45.605H60.892" style="opacity:.5;fill:none;fill-opacity:.973118;stroke:#000;stroke-width:1.32291;stroke-linecap:round;stroke-linejoin:round;stroke-miterlimit:4.7;paint-order:markers fill stroke"/><path id="path49" d="M92.642 29.276c0 9.018-7.31 16.329-16.328 16.329" style="opacity:.5;fill:none;fill-opacity:.973118;stroke:#000;stroke-width:1.32291;stroke-linecap:round;stroke-linejoin:round;stroke-miterlimit:4.7;paint-order:markers fill stroke"/><path id="path50" d="M76.314 12.948c9.018 0 16.328 7.31 16.328 16.328" style="opacity:.5;fill:none;fill-opacity:.973118;stroke:#000;stroke-width:1.32291;stroke-linecap:round;stroke-linejoin:round;stroke-miterlimit:4.7;paint-order:markers fill stroke"/><path id="path51" d="M60.892 12.948h15.422" style="opacity:.5;fill:none;fill-opacity:.973118;stroke:#000;stroke-width:1.32291;stroke-linecap:round;stroke-linejoin:round;stroke-miterlimit:4.7;paint-order:markers fill stroke"/></g><g id="g21" style="stroke-width:.960465" transform="matrix(1 0 0 1.08402 -56.408 -2.193)"><path id="path3" d="M107.973 49.12V30.482c0-10.895 8.832-19.727 19.727-19.727s19.726 8.832 19.726 19.727V49.12" style="opacity:.5;fill:none;fill-opacity:.973118;stroke:#000;stroke-width:1.27061;stroke-linecap:round;stroke-linejoin:round;stroke-miterlimit:4.7;paint-order:markers fill stroke"/><path id="path5" d="M127.7 17.37c7.141 0 12.93 5.79 12.93 12.948h-25.86c0-7.159 5.788-12.948 12.93-12.948" style="opacity:.5;fill:none;fill-opacity:.973118;stroke:#000;stroke-width:1.27062;stroke-linecap:round;stroke-linejoin:round;stroke-miterlimit:4.7;paint-order:markers fill stroke"/><path id="path6" d="M114.77 49.12V36.95h25.86v12.17" style="opacity:.5;fill:none;fill-opacity:.973118;stroke:#000;stroke-width:1.27062;stroke-linecap:round;stroke-linejoin:round;stroke-miterlimit:4.7;paint-order:markers fill stroke"/><path id="path11" d="M140.63 33.642h-25.86" style="opacity:.5;fill:none;fill-opacity:.973118;stroke:#000;stroke-width:1.27061;stroke-linecap:round;stroke-linejoin:round;stroke-miterlimit:4.7;paint-order:markers fill stroke"/><path id="path12" d="M111.371 49.12V30.391c0-9.018 7.31-16.328 16.329-16.328 9.018 0 16.328 7.31 16.328 16.328v18.73" style="opacity:.5;fill:none;fill-opacity:.973118;stroke:#000;stroke-width:1.27061;stroke-linecap:round;stroke-linejoin:round;stroke-miterlimit:4.7;paint-order:markers fill stroke"/></g></g></g></svg>